<?xml version="1.0" encoding="UTF-8" standalone="no"?>
<!-- Created with Inkscape (http://www.inkscape.org/) -->

<svg
   width="800"
   height="1400"
   viewBox="0 0 211.66666 370.41668"
   version="1.1"
   id="svg5"
   inkscape:export-filename="C:\Users\Rodrigo\Downloads\crono.png"
   inkscape:export-xdpi="96"
   inkscape:export-ydpi="96"
   inkscape:version="1.1.2 (b8e25be833, 2022-02-05)"
   sodipodi:docname="crono.svg"
   xmlns:inkscape="http://www.inkscape.org/namespaces/inkscape"
   xmlns:sodipodi="http://sodipodi.sourceforge.net/DTD/sodipodi-0.dtd"
   xmlns="http://www.w3.org/2000/svg"
   xmlns:svg="http://www.w3.org/2000/svg">
  <sodipodi:namedview
     id="namedview7"
     pagecolor="#ffffff"
     bordercolor="#666666"
     borderopacity="1.0"
     inkscape:pageshadow="2"
     inkscape:pageopacity="0.0"
     inkscape:pagecheckerboard="0"
     inkscape:document-units="px"
     showgrid="false"
     units="px"
     inkscape:zoom="0.32693273"
     inkscape:cx="845.73975"
     inkscape:cy="654.56892"
     inkscape:window-width="1366"
     inkscape:window-height="705"
     inkscape:window-x="-8"
     inkscape:window-y="-8"
     inkscape:window-maximized="1"
     inkscape:current-layer="layer1" />
  <defs
     id="defs2" />
  <g
     inkscape:label="Layer 1"
     inkscape:groupmode="layer"
     id="layer1">
    <text
       xml:space="preserve"
       style="font-style:normal;font-variant:normal;font-weight:normal;font-stretch:normal;font-size:5.57329px;line-height:1.25;font-family:lora;-inkscape-font-specification:lora;fill:#000000;fill-opacity:1;stroke:none;stroke-width:0.139332"
       x="10.180121"
       y="28.94948"
       id="text4360"><tspan
         sodipodi:role="line"
         id="tspan4358"
         style="font-style:normal;font-variant:normal;font-weight:normal;font-stretch:normal;font-family:lora;-inkscape-font-specification:lora;stroke-width:0.139332"
         x="10.180121"
         y="28.94948">Entrada del novio</tspan></text>
    <text
       xml:space="preserve"
       style="font-style:normal;font-variant:normal;font-weight:normal;font-stretch:normal;font-size:5.57329px;line-height:1.25;font-family:lora;-inkscape-font-specification:lora;fill:#000000;fill-opacity:1;stroke:none;stroke-width:0.139332"
       x="151.00511"
       y="73.476357"
       id="text4360-3"><tspan
         sodipodi:role="line"
         id="tspan4358-6"
         style="font-style:normal;font-variant:normal;font-weight:normal;font-stretch:normal;font-family:lora;-inkscape-font-specification:lora;stroke-width:0.139332"
         x="151.00511"
         y="73.476357">Entrada de las damas</tspan></text>
    <text
       xml:space="preserve"
       style="font-style:normal;font-variant:normal;font-weight:normal;font-stretch:normal;font-size:5.57329px;line-height:1.25;font-family:lora;-inkscape-font-specification:lora;fill:#000000;fill-opacity:1;stroke:none;stroke-width:0.139332"
       x="7.8690271"
       y="115.60349"
       id="text4360-3-7"><tspan
         sodipodi:role="line"
         id="tspan4358-6-1"
         style="font-style:normal;font-variant:normal;font-weight:normal;font-stretch:normal;font-family:lora;-inkscape-font-specification:lora;stroke-width:0.139332"
         x="7.8690271"
         y="115.60349">Entrada de la novia</tspan></text>
    <text
       xml:space="preserve"
       style="font-style:normal;font-variant:normal;font-weight:normal;font-stretch:normal;font-size:5.57329px;line-height:1.25;font-family:lora;-inkscape-font-specification:lora;fill:#000000;fill-opacity:1;stroke:none;stroke-width:0.139332"
       x="155.46176"
       y="161.32957"
       id="text4360-3-7-8"><tspan
         sodipodi:role="line"
         id="tspan4358-6-1-3"
         style="font-style:normal;font-variant:normal;font-weight:normal;font-stretch:normal;font-family:lora;-inkscape-font-specification:lora;stroke-width:0.139332"
         x="155.46176"
         y="161.32957">Acto civil</tspan></text>
    <text
       xml:space="preserve"
       style="font-style:normal;font-variant:normal;font-weight:normal;font-stretch:normal;font-size:5.57329px;line-height:1.25;font-family:lora;-inkscape-font-specification:lora;fill:#000000;fill-opacity:1;stroke:none;stroke-width:0.139332"
       x="16.365969"
       y="206.52965"
       id="text4360-3-7-8-3"><tspan
         sodipodi:role="line"
         id="tspan4358-6-1-3-2"
         style="font-style:normal;font-variant:normal;font-weight:normal;font-stretch:normal;font-family:lora;-inkscape-font-specification:lora;stroke-width:0.139332"
         x="16.365969"
         y="206.52965">Acto relogioso</tspan></text>
    <text
       xml:space="preserve"
       style="font-style:normal;font-variant:normal;font-weight:normal;font-stretch:normal;font-size:5.57329px;line-height:1.25;font-family:lora;-inkscape-font-specification:lora;fill:#000000;fill-opacity:1;stroke:none;stroke-width:0.139332"
       x="155.33232"
       y="251.37842"
       id="text4360-3-7-8-3-8"><tspan
         sodipodi:role="line"
         id="tspan4358-6-1-3-2-5"
         style="font-style:normal;font-variant:normal;font-weight:normal;font-stretch:normal;font-family:lora;-inkscape-font-specification:lora;stroke-width:0.139332"
         x="155.33232"
         y="251.37842">Brindis de los novios</tspan></text>
    <text
       xml:space="preserve"
       style="font-style:normal;font-variant:normal;font-weight:normal;font-stretch:normal;font-size:5.57329px;line-height:1.25;font-family:lora;-inkscape-font-specification:lora;fill:#000000;fill-opacity:1;stroke:none;stroke-width:0.139332"
       x="9.9772596"
       y="294.16656"
       id="text4360-3-7-8-3-8-1"><tspan
         sodipodi:role="line"
         id="tspan4358-6-1-3-2-5-6"
         style="font-style:normal;font-variant:normal;font-weight:normal;font-stretch:normal;font-family:lora;-inkscape-font-specification:lora;stroke-width:0.139332"
         x="9.9772596"
         y="294.16656">Baile de los novios</tspan></text>
    <text
       xml:space="preserve"
       style="font-style:normal;font-variant:normal;font-weight:normal;font-stretch:normal;font-size:5.57329px;line-height:1.25;font-family:lora;-inkscape-font-specification:lora;fill:#000000;fill-opacity:1;stroke:none;stroke-width:0.139332"
       x="158.45763"
       y="340.77457"
       id="text4360-3-7-8-3-8-1-1"><tspan
         sodipodi:role="line"
         id="tspan4358-6-1-3-2-5-6-9"
         style="font-style:normal;font-variant:normal;font-weight:normal;font-stretch:normal;font-family:lora;-inkscape-font-specification:lora;stroke-width:0.139332"
         x="158.45763"
         y="340.77457">Cena</tspan></text>
    <path
       style="fill:none;stroke:#000000;stroke-width:0.529167;stroke-linecap:butt;stroke-linejoin:miter;stroke-miterlimit:4;stroke-dasharray:none;stroke-opacity:1"
       d="m 93.675299,27.741745 c -0.505806,0 -35.102947,-0.101161 -35.102947,-0.101161"
       id="path11435" />
    <path
       style="fill:none;stroke:#000000;stroke-width:0.264583px;stroke-linecap:butt;stroke-linejoin:miter;stroke-opacity:1"
       d="M 106.52278,39.881092 V 59.708694"
       id="path11685" />
    <path
       style="fill:none;stroke:#000000;stroke-width:0.529167;stroke-linecap:butt;stroke-linejoin:miter;stroke-miterlimit:4;stroke-dasharray:none;stroke-opacity:1"
       d="M 106.62394,82.874616 V 102.90455"
       id="path11687" />
    <path
       style="fill:none;stroke:#000000;stroke-width:0.529167;stroke-linecap:butt;stroke-linejoin:miter;stroke-miterlimit:4;stroke-dasharray:none;stroke-opacity:1"
       d="m 106.52278,126.27282 v 21.54735"
       id="path11689" />
    <path
       style="fill:none;stroke:#000000;stroke-width:0.529167;stroke-linecap:butt;stroke-linejoin:miter;stroke-miterlimit:4;stroke-dasharray:none;stroke-opacity:1"
       d="m 106.42161,170.48028 0.10117,22.55895"
       id="path11691" />
    <path
       style="fill:none;stroke:#000000;stroke-width:0.529167;stroke-linecap:butt;stroke-linejoin:miter;stroke-miterlimit:4;stroke-dasharray:none;stroke-opacity:1"
       d="m 106.42161,215.90167 0.10117,22.35663"
       id="path11693" />
    <path
       style="fill:none;stroke:#000000;stroke-width:0.529167;stroke-linecap:butt;stroke-linejoin:miter;stroke-miterlimit:4;stroke-dasharray:none;stroke-opacity:1"
       d="m 106.62394,260.91842 v 22.05315"
       id="path11695" />
    <path
       style="fill:none;stroke:#000000;stroke-width:0.529167;stroke-linecap:butt;stroke-linejoin:miter;stroke-miterlimit:4;stroke-dasharray:none;stroke-opacity:1"
       d="m 106.52278,305.53053 v 22.05313"
       id="path11697" />
    <path
       style="fill:none;stroke:#000000;stroke-width:0.529167;stroke-linecap:butt;stroke-linejoin:miter;stroke-miterlimit:4;stroke-dasharray:none;stroke-opacity:1"
       d="M 146.3803,71.443396 H 122.20276"
       id="path11699" />
    <path
       style="fill:none;stroke:#000000;stroke-width:0.529167;stroke-linecap:butt;stroke-linejoin:miter;stroke-miterlimit:4;stroke-dasharray:none;stroke-opacity:1"
       d="m 92.132948,113.99075 c -1.144511,-0.14307 -32.475434,0 -32.475434,0"
       id="path11701" />
    <path
       style="fill:none;stroke:#000000;stroke-width:0.529167;stroke-linecap:butt;stroke-linejoin:miter;stroke-miterlimit:4;stroke-dasharray:none;stroke-opacity:1"
       d="m 120.31647,159.19884 c 0.85839,0.28613 32.18931,-0.14306 32.18931,-0.14306"
       id="path11703" />
    <path
       style="fill:none;stroke:#000000;stroke-width:0.529167;stroke-linecap:butt;stroke-linejoin:miter;stroke-miterlimit:4;stroke-dasharray:none;stroke-opacity:1"
       d="M 93.277456,204.40693 H 59.657514"
       id="path11705" />
    <path
       style="fill:none;stroke:#000000;stroke-width:0.529167;stroke-linecap:butt;stroke-linejoin:miter;stroke-miterlimit:4;stroke-dasharray:none;stroke-opacity:1"
       d="m 152.21965,249.75809 -32.33237,-0.14307"
       id="path11707" />
    <path
       style="fill:none;stroke:#000000;stroke-width:0.529167;stroke-linecap:butt;stroke-linejoin:miter;stroke-miterlimit:4;stroke-dasharray:none;stroke-opacity:1"
       d="m 60.372831,292.9633 32.046243,0.14306"
       id="path11709" />
    <path
       style="fill:none;stroke:#000000;stroke-width:0.529167;stroke-linecap:butt;stroke-linejoin:miter;stroke-miterlimit:4;stroke-dasharray:none;stroke-opacity:1"
       d="m 120.35657,338.88843 31.86308,-0.14481"
       id="path11711" />
    <ellipse
       style="fill:none;stroke:#000000;stroke-width:0.926042;stroke-linecap:round;stroke-linejoin:round;stroke-miterlimit:4;stroke-dasharray:none;stroke-opacity:1"
       id="path11975"
       cx="106.62547"
       cy="71.429291"
       rx="11.731215"
       ry="11.720594" />
    <ellipse
       style="fill:none;stroke:#000000;stroke-width:0.926042;stroke-linecap:round;stroke-linejoin:round;stroke-miterlimit:4;stroke-dasharray:none;stroke-opacity:1"
       id="path11975-5"
       cx="106.43931"
       cy="114.84908"
       rx="11.731215"
       ry="11.720594" />
    <ellipse
       style="fill:none;stroke:#000000;stroke-width:0.926042;stroke-linecap:round;stroke-linejoin:round;stroke-miterlimit:4;stroke-dasharray:none;stroke-opacity:1"
       id="path11975-5-3"
       cx="106.54048"
       cy="159.35162"
       rx="11.731215"
       ry="11.720594" />
    <ellipse
       style="fill:none;stroke:#000000;stroke-width:0.926042;stroke-linecap:round;stroke-linejoin:round;stroke-miterlimit:4;stroke-dasharray:none;stroke-opacity:1"
       id="path11975-5-3-3"
       cx="106.48989"
       cy="204.65968"
       rx="11.731215"
       ry="11.720594" />
    <ellipse
       style="fill:none;stroke:#000000;stroke-width:0.926042;stroke-linecap:round;stroke-linejoin:round;stroke-miterlimit:4;stroke-dasharray:none;stroke-opacity:1"
       id="path11975-5-3-3-7"
       cx="106.4827"
       cy="249.6062"
       rx="11.731215"
       ry="11.720594" />
    <ellipse
       style="fill:none;stroke:#000000;stroke-width:0.926042;stroke-linecap:round;stroke-linejoin:round;stroke-miterlimit:4;stroke-dasharray:none;stroke-opacity:1"
       id="path11975-5-3-3-7-4"
       cx="106.52278"
       cy="294.20053"
       rx="11.731215"
       ry="11.720594" />
    <ellipse
       style="fill:none;stroke:#000000;stroke-width:0.926042;stroke-linecap:round;stroke-linejoin:round;stroke-miterlimit:4;stroke-dasharray:none;stroke-opacity:1"
       id="path11975-5-3-3-7-4-4"
       cx="106.52277"
       cy="338.81265"
       rx="11.731215"
       ry="11.720594" />
    <ellipse
       style="fill:none;stroke:#000000;stroke-width:0.926042;stroke-linecap:round;stroke-linejoin:round;stroke-miterlimit:4;stroke-dasharray:none;stroke-opacity:1"
       id="path11975-5-3-3-7-4-4-5"
       cx="106.52277"
       cy="28.652205"
       rx="11.731215"
       ry="11.720594" />
    <path
       style="fill:#000000;stroke-width:0.0355275"
       d="m 105.71742,36.687595 -0.33751,-0.0092 -0.69279,-0.03893 -0.69278,-0.03893 -0.47391,-0.05168 -0.4739,-0.05168 -0.39653,-0.05415 -0.39652,-0.05417 -0.28421,-0.05273 -0.28423,-0.05273 -0.34703,-0.08771 -0.34705,-0.08771 -0.27994,-0.09252 -0.27993,-0.09252 -0.11022,-0.06702 -0.11022,-0.06702 V 35.575523 35.36216 l 0.0551,-0.54212 0.0551,-0.542118 0.0866,-0.603969 0.0866,-0.603969 0.0885,-0.328778 0.0885,-0.328778 0.0768,-0.150844 0.0768,-0.150844 0.25247,-0.250518 0.25246,-0.250518 0.25077,-0.165131 0.25077,-0.165131 0.3532,-0.175974 0.3532,-0.175974 0.40857,-0.167998 0.40857,-0.167998 0.29303,-0.101922 0.29304,-0.101923 h 0.0673 0.0673 l 0.0215,0.0562 0.0215,0.0562 v 0.424924 0.424922 l 0.056,0.27384 0.056,0.273842 0.11085,0.337511 0.11085,0.337512 0.29355,0.586204 0.29355,0.586205 0.31431,0.479622 0.31431,0.479622 0.43027,0.568441 0.43026,0.568441 0.11377,0.115465 0.11376,0.115464 h 0.0463 0.0463 l 0.11117,-0.111171 0.11117,-0.111173 0.34988,-0.468195 0.34988,-0.468196 0.3015,-0.44205 0.3015,-0.442049 0.25013,-0.437081 0.25013,-0.437079 0.17633,-0.417508 0.17633,-0.417507 0.11475,-0.353349 0.11476,-0.35335 0.0223,-0.643607 0.0223,-0.643607 0.63949,0.239415 0.6395,0.239416 0.33751,0.149462 0.33751,0.149461 0.3726,0.219202 0.3726,0.219203 0.28804,0.28422 0.28805,0.28422 0.0962,0.206183 0.0963,0.206182 0.0651,0.255676 0.0651,0.255677 0.0751,0.532913 0.0751,0.532913 0.0511,0.479622 0.0511,0.479622 0.0242,0.395319 0.0242,0.395319 -0.38622,0.127158 -0.3862,0.127157 -0.28423,0.07035 -0.28421,0.07034 -0.37931,0.07247 -0.37931,0.07247 -0.54441,0.07132 -0.54441,0.07132 -0.62173,0.05321 -0.62173,0.05321 -0.94148,0.03598 -0.94148,0.03598 -0.51515,-0.0072 -0.51515,-0.0072 z m 5.0584,-2.038099 0.63522,-0.07248 0.11974,-0.05003 0.11974,-0.05003 v -0.12362 -0.123622 l -0.0558,-0.05583 -0.0559,-0.05583 h -0.18815 -0.18816 l -0.72414,0.07181 -0.72413,0.07181 -0.11574,0.03762 -0.11574,0.03762 -0.0352,0.06589 -0.0352,0.06589 0.0336,0.08828 0.0335,0.08828 0.0641,0.03731 0.0641,0.03731 0.26645,0.0011 0.26647,0.0011 0.63521,-0.07248 z m -5.57924,-1.756891 -0.0654,-0.04777 v -0.889759 -0.889757 l 0.0576,-0.05763 0.0576,-0.05763 0.26216,0.105893 0.26217,0.105894 0.49294,0.234642 0.49295,0.234643 0.04,1.42e-4 0.04,1.41e-4 0.68327,-0.322316 0.68328,-0.322317 0.096,0.01131 0.096,0.01131 0.0344,0.106583 0.0344,0.106582 0.004,0.78918 0.004,0.789181 -0.0585,0.05856 -0.0586,0.05856 -0.13689,-0.04518 -0.13688,-0.04518 -0.63521,-0.29397 -0.63521,-0.293971 -0.16416,0.06549 -0.16416,0.0655 -0.46186,0.220154 -0.46185,0.220154 -0.14781,0.06467 -0.1478,0.06467 -0.0654,-0.04777 z m 0.92941,-3.000732 -0.24869,-0.06554 -0.18949,-0.07233 -0.18949,-0.07233 -0.25461,-0.150136 -0.25461,-0.150136 -0.30489,-0.305126 -0.30489,-0.305125 -0.14714,-0.218708 -0.14714,-0.218708 -0.16366,-0.326427 -0.16368,-0.326429 -0.0884,-0.236471 -0.0884,-0.23647 -0.0917,-0.157632 -0.0917,-0.157633 -0.13222,-0.144351 -0.13221,-0.144352 -0.1085,-0.177638 -0.1085,-0.177638 -0.0983,-0.284221 -0.0983,-0.284219 -0.002,-0.461859 -0.002,-0.461858 0.0774,-0.144488 0.0774,-0.144487 0.0582,-0.04833 0.0582,-0.04833 0.0581,-0.109171 0.0581,-0.10917 0.0224,-0.817134 0.0224,-0.817134 0.0974,-0.284221 0.0975,-0.284219 0.11209,-0.210409 0.11211,-0.210408 0.17005,-0.186057 0.17005,-0.186058 0.46816,-0.364911 0.46817,-0.364911 0.23055,-0.140067 0.23056,-0.140067 0.24127,-0.10267 0.24127,-0.102672 0.29397,-0.06761 0.29397,-0.06761 0.23785,-0.02336 0.23786,-0.02336 0.34835,0.04153 0.34835,0.04153 0.33338,0.08655 0.33337,0.08655 0.25852,0.119441 0.25851,0.11944 0.25902,0.167561 0.25903,0.167561 0.22784,0.218147 0.22786,0.218148 0.15656,0.218725 0.15656,0.218725 0.13791,0.296425 0.1379,0.296424 0.0804,0.284221 0.0803,0.28422 -0.006,0.77597 -0.006,0.77597 0.16936,0.185638 0.16935,0.185637 0.0667,0.187055 0.0667,0.187055 -0.0192,0.343495 -0.0192,0.343496 -0.057,0.213165 -0.057,0.213166 -0.12147,0.248693 -0.12146,0.248692 -0.21589,0.248694 -0.21589,0.248692 -0.1071,0.284221 -0.1071,0.28422 -0.0967,0.213166 -0.0967,0.213164 -0.1262,0.221214 -0.12619,0.221214 -0.2229,0.282982 -0.22289,0.282983 -0.1839,0.153892 -0.18389,0.153892 -0.13006,0.09626 -0.13006,0.09626 -0.24298,0.119374 -0.24298,0.119373 -0.10658,0.04054 -0.10659,0.04053 -0.23093,0.05334 -0.23092,0.05334 -0.40857,-0.0015 -0.40857,-0.0015 -0.24869,-0.06554 z m 1.21029,-0.466711 0.21081,-0.03878 0.25489,-0.117546 0.2549,-0.117547 0.17014,-0.117052 0.17013,-0.117053 0.2244,-0.224407 0.22442,-0.224406 0.19202,-0.2946 0.19203,-0.2946 0.12241,-0.282323 0.12241,-0.282325 0.0802,-0.248692 0.0802,-0.248694 0.0538,-0.106582 0.0538,-0.106582 0.15995,-0.141029 0.15995,-0.141027 0.11941,-0.186673 0.11941,-0.186672 0.058,-0.222977 0.058,-0.222977 0.004,-0.319748 0.004,-0.319748 -0.0485,-0.08634 -0.0485,-0.08634 -0.0479,0.06548 -0.0478,0.06548 -0.1636,0.420547 -0.16359,0.42055 h -0.0319 -0.0319 l -0.0162,-0.07993 -0.0162,-0.07993 -0.0201,-0.408566 -0.0201,-0.408568 -0.0536,-0.354329 -0.0536,-0.35433 -0.0453,-0.04535 -0.0453,-0.04535 -0.41101,-0.05099 -0.41099,-0.05099 -0.21513,-0.05575 -0.21514,-0.05574 -0.30632,-0.127766 -0.30518,-0.127749 -0.21058,-0.136105 -0.21058,-0.136106 -0.46665,-0.366621 -0.46665,-0.366621 -0.21987,-0.16832 -0.21988,-0.16832 -0.15731,-0.05373 -0.15732,-0.05373 -0.10914,7.8e-4 -0.10914,7.8e-4 -0.14211,0.0658 -0.1421,0.0658 -0.10659,0.113692 -0.10658,0.113691 -0.20722,0.12607 -0.20721,0.12607 -0.10253,0.141533 -0.10253,0.141534 -0.10427,0.271563 -0.10426,0.271563 -0.0713,0.337512 -0.0713,0.337512 -0.0413,0.37304 -0.0413,0.373039 -0.024,0.405701 -0.024,0.405702 -0.039,0.01291 -0.0391,0.01291 -0.0902,-0.205452 -0.0902,-0.205452 -0.0771,-0.237122 -0.0771,-0.237122 -0.0489,-0.04052 -0.0489,-0.04051 -0.038,0.07101 -0.038,0.07102 v 0.320335 0.320335 l 0.0392,0.188268 0.0392,0.188269 0.10308,0.218735 0.10309,0.218733 0.21046,0.182325 0.21046,0.182324 0.11324,0.34502 0.11325,0.34502 0.17013,0.356609 0.17013,0.356607 0.20976,0.282889 0.20976,0.282888 0.24548,0.22154 0.24547,0.221542 0.28902,0.146546 0.28903,0.146548 0.19165,0.04634 0.19165,0.04634 0.39317,0.003 0.39316,0.003 0.21081,-0.03878 z m -2.27794,-3.782262 -0.10841,-0.0535 -0.0604,-0.102163 -0.0604,-0.102163 v -0.09398 -0.09398 l 0.0538,-0.104216 0.0539,-0.104217 0.10422,-0.05389 0.10421,-0.05389 h 0.18102 0.18102 l 0.0849,0.08485 0.0848,0.08485 0.0247,0.131742 0.0247,0.131743 -0.0415,0.138477 -0.0415,0.138476 -0.10345,0.0535 -0.10345,0.0535 -0.135,-8.21e-4 -0.13499,-8.21e-4 -0.10841,-0.0535 z m 3.0145,-0.01238 -0.11374,-0.07146 -0.055,-0.106389 -0.055,-0.10639 v -0.09048 -0.09049 l 0.12848,-0.142212 0.12848,-0.142212 h 0.17526 0.17527 l 0.10422,0.05389 0.10422,0.05389 0.0539,0.104217 0.0539,0.104217 v 0.108869 0.108868 l -0.11767,0.128398 -0.11768,0.128399 -0.17543,0.01516 -0.17543,0.01517 z"
       id="path23262" />
    <path
       style="fill:#000000;stroke-width:0.0352759"
       d="m 106.19142,79.719352 -0.0706,-0.01578 -0.31747,-0.10069 -0.31749,-0.100691 -0.12347,-0.0203 -0.12346,-0.0203 -0.34969,0.05268 -0.34968,0.05268 h -0.25568 -0.25568 l -0.21738,-0.06765 -0.21738,-0.06765 -0.32372,-0.188096 -0.32372,-0.188095 h -0.42332 -0.4233 l -0.23288,-0.08405 -0.23287,-0.08405 -0.19044,-0.130513 -0.19043,-0.130511 -0.16617,-0.205274 -0.16618,-0.205275 -0.041,-0.197496 -0.041,-0.197495 0.0192,-0.987725 0.0192,-0.987723 0.0569,-0.405673 0.0569,-0.405673 0.0894,-0.405672 0.0894,-0.405673 0.17468,-0.529138 0.17469,-0.529137 0.2617,-0.529139 0.2617,-0.529138 0.31616,-0.476224 0.31614,-0.476224 0.26922,-0.335121 0.26922,-0.33512 0.50569,-0.546776 0.50569,-0.546777 0.18068,-0.211654 0.18069,-0.211656 3.2e-4,-0.07829 3.2e-4,-0.07829 -0.28555,-0.697778 -0.28555,-0.697779 -0.19567,-0.511499 -0.19567,-0.511501 -0.0158,-0.141103 -0.0158,-0.141104 0.075,-0.19916 0.0749,-0.199162 0.13433,-0.207824 0.13432,-0.207824 0.16935,-0.190681 0.16935,-0.190681 0.0678,-0.153156 0.0678,-0.153154 0.0359,-0.801317 0.0359,-0.801317 0.0256,-0.105827 0.0256,-0.105829 0.0962,-0.04662 0.0962,-0.04662 0.10669,0.02343 0.10669,0.02343 0.0363,0.09375 0.0363,0.09375 0.0306,0.776069 0.0306,0.776069 0.002,0.114647 0.001,0.114646 h 0.2456 0.24562 l 0.19383,0.07252 0.19383,0.07252 0.2679,0.174888 0.26791,0.174888 0.22297,-0.159109 0.22297,-0.159111 0.22497,-0.08467 0.22497,-0.08467 0.2056,-0.02568 0.2056,-0.02568 0.0293,-0.07496 0.0293,-0.07496 0.0387,-0.758431 0.0387,-0.758431 0.0284,-0.105827 0.0286,-0.105829 0.0959,-0.04662 0.096,-0.04662 0.10487,0.02303 0.10486,0.02303 0.0378,0.07061 0.0378,0.07061 0.0316,0.799596 0.0316,0.799597 0.0226,0.141103 0.0226,0.141104 0.0453,0.08819 0.0453,0.08819 0.21111,0.238812 0.2111,0.238812 0.13017,0.247711 0.13017,0.247713 0.0196,0.190431 0.0196,0.190432 -0.0424,0.169665 -0.0424,0.169666 -0.36514,0.881897 -0.36513,0.881896 -0.0812,0.235377 -0.0812,0.235377 0.13004,0.187934 0.13003,0.187933 0.51829,0.564413 0.51828,0.564415 0.26804,0.33512 0.26805,0.335122 0.19719,0.282206 0.19719,0.282207 0.17,0.282207 0.17,0.282207 0.20389,0.405672 0.20388,0.405673 0.15635,0.405672 0.15636,0.405674 0.10863,0.388034 0.10863,0.388034 0.0708,0.352759 0.0707,0.352759 0.0526,0.440948 0.0526,0.440948 0.0223,0.564414 0.0223,0.564414 -0.0375,0.379471 -0.0375,0.379472 -0.0763,0.177536 -0.0763,0.177535 -0.22788,0.208808 -0.22787,0.208807 -0.14762,0.07147 -0.14762,0.07147 -0.18879,0.0358 -0.18877,0.0358 h -0.22281 -0.22274 l -0.18693,0.03824 -0.18694,0.03824 -0.34419,0.173883 -0.3442,0.173885 -0.22022,0.05193 -0.22022,0.05193 -0.2822,-7.2e-4 -0.28222,-7.2e-4 -0.22929,-0.05044 -0.22929,-0.05044 -0.18419,-0.0012 -0.1842,-0.0012 -0.20383,0.09042 -0.20385,0.09042 -0.21165,0.05016 -0.21166,0.05016 -0.24693,-0.0036 -0.24693,-0.0036 -0.0706,-0.01578 z m 0.71977,-0.725044 0.15536,-0.03928 0.31815,-0.208902 0.31814,-0.208903 0.39065,0.188553 0.39065,0.188555 0.21176,-6.21e-4 0.21176,-6.21e-4 0.26456,-0.125892 0.26457,-0.125891 0.2559,-0.235067 0.2559,-0.235067 h 0.0715 0.0715 l 0.13114,0.05517 0.13115,0.05517 0.1668,0.03196 0.16681,0.03196 0.20359,-0.03694 0.2036,-0.03694 0.1514,-0.08783 0.15142,-0.08783 0.10026,-0.138447 0.10025,-0.138446 0.0229,-0.152678 0.0229,-0.152679 -0.0369,-0.632507 -0.0369,-0.632508 -0.0552,-0.440949 -0.0552,-0.440948 -0.0866,-0.413826 -0.0866,-0.413825 -0.10752,-0.362243 -0.10751,-0.362245 -0.15838,-0.388034 -0.15837,-0.388034 -0.19323,-0.361165 -0.19324,-0.361164 -0.27451,-0.414905 -0.2745,-0.414905 -0.28172,-0.352759 -0.28172,-0.352759 -0.3857,-0.417139 -0.3857,-0.41714 -0.2214,-0.270318 -0.2214,-0.270318 -0.0768,-0.158653 -0.0768,-0.158653 -0.0142,-0.196649 -0.0143,-0.196649 0.0581,-0.227171 0.0581,-0.227172 0.17987,-0.440948 0.17986,-0.440949 0.2277,-0.561101 0.22768,-0.561101 -0.0214,-0.10665 -0.0214,-0.10665 -0.1085,-0.169076 -0.10849,-0.169076 -0.12667,-0.111215 -0.12666,-0.111216 -0.12053,-0.05036 -0.12051,-0.05036 -0.20777,-9.95e-4 -0.20778,-9.93e-4 -0.18577,0.08556 -0.18578,0.08555 -0.35154,0.321259 -0.35154,0.32126 -0.21288,-0.202243 -0.21286,-0.202242 -0.16156,-0.130496 -0.16155,-0.130494 -0.16518,-0.07307 -0.16518,-0.07307 -0.21383,-0.001 -0.21383,-10e-4 -0.19102,0.09346 -0.19102,0.09346 -0.12181,0.148653 -0.12181,0.148652 -0.0373,0.09817 -0.0373,0.09817 v 0.114552 0.114552 l 0.10087,0.297643 0.10088,0.297643 0.28799,0.71575 0.288,0.715748 0.0555,0.2367 0.0555,0.2367 -0.0184,0.18408 -0.0184,0.184082 -0.11149,0.209164 -0.11148,0.209165 -0.4115,0.446582 -0.4115,0.446581 -0.34655,0.394828 -0.34656,0.394828 -0.25831,0.352759 -0.25831,0.352759 -0.18315,0.299844 -0.18314,0.299846 -0.20745,0.424234 -0.20743,0.424236 -0.17594,0.528214 -0.17594,0.528212 -0.0895,0.443982 -0.0895,0.443982 -0.0519,0.455553 -0.0519,0.455553 -0.0378,0.811344 -0.0378,0.811346 0.15113,0.132832 0.15111,0.132834 0.14112,0.06875 0.1411,0.06876 0.1953,0.02286 0.19529,0.02286 0.22801,-0.06179 0.22802,-0.06179 0.11009,-0.01607 0.11009,-0.01607 0.29013,0.263834 0.29014,0.263835 0.18183,0.09139 0.18182,0.09139 0.1953,0.02247 0.1953,0.02247 0.2244,-0.0575 0.22441,-0.05749 0.13599,-0.122861 0.13599,-0.122859 0.13219,5.86e-4 0.13218,5.85e-4 0.36764,0.209818 0.36763,0.209816 0.16151,0.02166 0.1615,0.02166 0.0352,0.01065 0.0352,0.01065 0.10583,-0.01553 0.10582,-0.01553 0.15536,-0.03928 z"
       id="path23488" />
    <path
       style="fill:#000000;stroke-width:0.0373898"
       d="m 103.84225,123.43152 -0.49999,-0.0495 -0.41606,-0.0592 -0.41607,-0.0592 -0.40332,-0.0753 -0.40332,-0.0753 -0.44925,-0.13055 -0.44924,-0.13055 -0.14761,-0.0591 -0.14761,-0.0591 v -0.11642 -0.11642 l 0.11466,-0.78622 0.11466,-0.78622 0.11098,-0.59824 0.11098,-0.59824 0.0994,-0.20564 0.0994,-0.20565 0.28254,-0.2823 0.28254,-0.28231 0.23697,-0.16065 0.23697,-0.16065 0.27986,-0.12753 0.27986,-0.12754 0.474,-0.14441 0.474,-0.14441 0.1407,-0.0253 0.1407,-0.0253 0.015,0.0485 0.015,0.0485 0.0207,0.12007 0.0207,0.12007 -0.0514,0.0514 -0.0513,0.0514 -0.49892,0.14032 -0.49892,0.14033 -0.30329,0.14484 -0.30329,0.14483 -0.29759,0.22065 -0.29759,0.22065 -0.13291,0.16403 -0.13291,0.16403 -0.0553,0.11217 -0.0553,0.11217 -0.0408,0.16826 -0.0408,0.16825 -0.0938,0.56085 -0.0938,0.56084 -0.0578,0.44713 -0.0578,0.44712 v 0.10493 0.10492 l 0.11423,0.0695 0.11423,0.0695 0.41857,0.1001 0.41858,0.10009 0.30846,0.049 0.30847,0.049 v -0.0461 -0.0462 l -0.0706,-0.16366 -0.0706,-0.16366 -0.0239,-0.29912 -0.0239,-0.29912 0.0385,-0.29741 0.0385,-0.29741 0.10641,-0.22605 0.10641,-0.22604 0.18331,-0.20303 0.18331,-0.20304 0.22164,-0.14337 0.22164,-0.14338 0.24033,-0.0742 0.24032,-0.0742 h 0.33652 0.33652 l 0.2291,0.0594 0.22909,0.0594 0.21861,0.10846 0.2186,0.10846 0.11854,0.0814 0.11855,0.0814 0.32324,0.31246 0.32325,0.31246 0.33154,-0.32804 0.33153,-0.32804 0.21485,-0.12627 0.21484,-0.12628 0.25207,-0.0967 0.25207,-0.0967 0.50476,-4.4e-4 0.50476,-4.4e-4 0.2473,0.10388 0.2473,0.10387 0.21765,0.17566 0.21765,0.17567 0.15971,0.23372 0.15972,0.23372 0.0951,0.30101 0.0951,0.30102 v 0.2724 0.27241 l -0.10843,0.36113 -0.10842,0.36114 0.15516,-0.0221 0.15516,-0.0221 0.31782,-0.0717 0.31781,-0.0717 0.38798,-0.0999 0.38797,-0.0999 -0.0245,-0.26342 -0.0245,-0.26341 -0.11003,-0.7112 -0.11003,-0.71119 -0.0599,-0.31534 -0.0599,-0.31533 -0.0771,-0.15204 -0.0771,-0.15204 -0.26509,-0.25508 -0.26509,-0.25509 -0.24676,-0.16404 -0.24677,-0.16405 -0.28243,-0.11309 -0.28242,-0.11309 -0.45887,-0.13083 -0.45886,-0.13082 -0.0139,-0.0139 -0.0139,-0.0139 0.0413,-0.1924 0.0413,-0.19241 h 0.032 0.032 l 0.59121,0.16853 0.5912,0.16852 0.26963,0.13192 0.26963,0.13192 0.29708,0.22028 0.29708,0.22027 0.21502,0.21773 0.21501,0.21773 0.10448,0.22434 0.10449,0.22434 0.0748,0.3739 0.0748,0.3739 0.0757,0.52826 0.0757,0.52827 0.0567,0.48126 0.0567,0.48126 3.4e-4,0.0833 3.3e-4,0.0833 -0.0958,0.0628 -0.0958,0.0628 -0.41831,0.12527 -0.41832,0.12526 -0.46737,0.0921 -0.46737,0.0921 -0.56031,0.0773 -0.5603,0.0772 -0.72965,0.0354 -0.72964,0.0354 -1.81341,-0.004 -1.8134,-0.004 -0.49999,-0.0495 z m 5.24849,-0.49972 0.3739,-0.0438 0.14192,-0.0376 0.14191,-0.0376 0.0739,-0.11961 0.0739,-0.11962 0.0786,-0.2556 0.0786,-0.25559 -0.0166,-0.2873 -0.0166,-0.2873 -0.0975,-0.21305 -0.0975,-0.21306 -0.17629,-0.18847 -0.17629,-0.18847 -0.24551,-0.12086 -0.2455,-0.12087 -0.26833,-0.0135 -0.26833,-0.0135 -0.21724,0.0632 -0.21723,0.0631 -0.21366,0.10785 -0.21366,0.10786 -0.22056,0.18356 -0.22057,0.18355 -0.18353,0.27559 -0.18352,0.27559 -0.0923,0.10282 -0.0923,0.10283 h -0.0838 -0.0838 l -0.0548,-0.0549 -0.0549,-0.0548 -0.13458,-0.24066 -0.13458,-0.24065 -0.22118,-0.21861 -0.22118,-0.21861 -0.20219,-0.12196 -0.20218,-0.12195 -0.22181,-0.0793 -0.2218,-0.0793 -0.26469,-0.0182 -0.2647,-0.0182 -0.20731,0.0603 -0.20731,0.0603 -0.18129,0.12184 -0.1813,0.12185 -0.1415,0.18695 -0.1415,0.18695 -0.0785,0.20564 -0.0785,0.20564 -9.1e-4,0.28401 -9.1e-4,0.28401 0.0656,0.20206 0.0656,0.20206 0.0759,0.12581 0.0759,0.1258 0.11977,0.05 0.11978,0.05 0.40733,0.0398 0.40732,0.0397 0.20565,0.0129 0.20564,0.0129 1.98166,-0.009 1.98166,-0.009 0.3739,-0.0438 z m -2.77182,-3.58391 -0.0798,-0.0646 -0.0438,-0.0855 -0.0438,-0.0855 0.0251,-0.0827 0.0251,-0.0827 0.077,-0.0841 0.077,-0.0841 h 0.14475 0.14474 l 0.0918,0.0918 0.0918,0.0918 v 0.11633 0.11633 l -0.043,0.0817 -0.043,0.0817 -0.0411,0.0275 -0.0411,0.0275 -0.13086,-2.6e-4 -0.13087,-2.6e-4 -0.0797,-0.0646 z m -0.79891,-0.30764 -0.0748,-0.0748 v -0.11217 -0.11217 l 0.0748,-0.0748 0.0748,-0.0748 h 0.13087 0.13086 l 0.0748,0.0748 0.0748,0.0748 v 0.0884 0.0884 l -0.0775,0.0985 -0.0775,0.0985 h -0.12815 -0.12815 z m 1.60489,-0.0345 -0.10929,-0.1093 v -0.0749 -0.0749 l 0.0996,-0.0783 0.0995,-0.0783 0.0854,-0.0214 0.0854,-0.0214 0.0847,0.0593 0.0847,0.0593 0.0448,0.0837 0.0448,0.0836 -0.053,0.10252 -0.053,0.10251 -0.0719,0.0385 -0.0719,0.0385 h -0.0801 -0.0801 z m -2.2779,-0.33939 -0.0748,-0.0748 v -0.10802 -0.10803 l 0.07,-0.0864 0.07,-0.0864 h 0.1405 0.1405 l 0.07,0.0864 0.07,0.0864 v 0.10803 0.10802 l -0.0748,0.0748 -0.0748,0.0748 h -0.13087 -0.13086 z m 2.94089,0.006 -0.0619,-0.0684 v -0.13455 -0.13456 l 0.10121,-0.0796 0.1012,-0.0796 0.0951,0.0222 0.0951,0.0222 0.0841,0.0941 0.0841,0.0941 v 0.0849 0.0849 l -0.0865,0.0813 -0.0865,0.0813 h -0.13201 -0.13201 z m 3.64897,-0.5028 -0.19639,-0.11998 0.0114,-0.0377 0.0114,-0.0377 0.24111,-0.15629 0.24112,-0.1563 0.24818,-0.17004 0.24817,-0.17004 -0.14676,-0.45885 -0.14677,-0.45885 -0.14388,-0.50476 -0.14388,-0.50477 -0.0961,-0.46737 -0.0961,-0.46737 -0.094,-0.65432 -0.094,-0.65432 -0.13225,-1.19558 -0.13224,-1.19558 -0.0935,-0.59913 -0.0935,-0.59914 -0.11185,-0.42565 -0.11185,-0.42566 -0.16363,-0.34542 -0.16362,-0.34542 -0.15393,-0.22667 -0.15393,-0.22666 -0.20624,-0.24311 -0.20624,-0.2431 -0.29774,-0.23824 -0.29774,-0.23822 -0.3282,-0.17302 -0.32821,-0.17303 -0.33667,-0.11278 -0.33667,-0.11278 -0.33189,-0.0579 -0.3319,-0.0579 h -0.47704 -0.47704 l -0.31259,0.0578 -0.3126,0.0578 -0.29912,0.0965 -0.29912,0.0965 -0.31781,0.16337 -0.31781,0.16336 -0.24572,0.1851 -0.24571,0.1851 -0.2713,0.28561 -0.27131,0.28562 -0.20433,0.31347 -0.20433,0.31347 -0.12787,0.2806 -0.12788,0.28059 -0.1118,0.36555 -0.1118,0.36554 -0.057,0.28416 -0.057,0.28417 -0.0567,0.46363 -0.0567,0.46364 -0.095,0.91605 -0.0949,0.91605 -0.0946,0.67301 -0.0946,0.67302 -0.0925,0.50476 -0.0925,0.50477 -0.11428,0.46737 -0.11427,0.46737 -0.20415,0.63563 -0.20416,0.63562 0.12345,0.10392 0.12346,0.10392 0.38268,0.25128 0.38269,0.25129 6.6e-4,0.0219 6.6e-4,0.0219 -0.19683,0.0996 -0.19683,0.0996 h -0.0579 -0.0579 l -0.31547,-0.21575 -0.31548,-0.21575 -0.21499,-0.15932 -0.21499,-0.15933 v -0.0283 -0.0283 l 0.18782,-0.55944 0.18781,-0.55945 0.14763,-0.52346 0.14762,-0.52346 0.0932,-0.46737 0.0932,-0.46737 0.0938,-0.65432 0.0938,-0.65432 0.0746,-0.65433 0.0746,-0.65432 0.0954,-0.87207 0.0954,-0.87207 0.0943,-0.44683 0.0943,-0.44682 0.13279,-0.38234 0.13278,-0.38234 0.18933,-0.36924 0.18933,-0.36923 0.21186,-0.28508 0.21186,-0.28509 0.22514,-0.22805 0.22514,-0.22804 0.25193,-0.19072 0.25194,-0.19072 0.36145,-0.18463 0.36145,-0.18464 0.26252,-0.0938 0.26252,-0.0938 0.36311,-0.0787 0.36311,-0.0787 h 0.54134 0.54133 l 0.38472,0.0416 0.38471,0.0416 0.31781,0.0907 0.31781,0.0907 0.41323,0.20116 0.41322,0.20116 0.29718,0.22089 0.29719,0.22089 0.28701,0.30584 0.28701,0.30584 0.16799,0.25269 0.168,0.2527 0.17557,0.35279 0.17558,0.35279 0.14171,0.43191 0.14171,0.43191 0.0778,0.46738 0.0778,0.46737 0.15002,1.34603 0.15002,1.34604 0.0957,0.67301 0.0957,0.67302 0.129,0.64334 0.129,0.64335 0.14774,0.47835 0.14773,0.47835 0.15103,0.44693 0.15103,0.44692 v 0.0647 0.0647 l -0.15891,0.13019 -0.15891,0.1302 -0.39053,0.2649 -0.39053,0.2649 -0.0208,-0.001 -0.0208,-10e-4 -0.19639,-0.11997 z m -7.07765,-0.0209 -0.0848,-0.0687 0.003,-0.1227 0.003,-0.1227 0.0837,-0.0891 0.0837,-0.0891 h 0.0849 0.0849 l 0.0941,0.0841 0.0942,0.0841 0.0222,0.0951 0.0222,0.0951 -0.0796,0.1012 -0.0796,0.10121 h -0.12401 -0.12401 l -0.0848,-0.0687 z m 3.94465,-0.0231 -0.0918,-0.0918 v -0.0969 -0.0969 l 0.0918,-0.0918 0.0918,-0.0918 h 0.056 0.056 l 0.0911,0.0415 0.0911,0.0415 0.0415,0.0911 0.0415,0.0911 v 0.073 0.073 l -0.0748,0.0748 -0.0748,0.0748 h -0.11387 -0.11387 z m -2.28268,-0.62187 -0.19055,-0.0319 -0.18296,-0.0784 -0.18295,-0.0784 -0.30472,-0.20275 -0.30473,-0.20276 -0.32013,-0.31798 -0.32014,-0.31799 -0.21969,-0.33347 -0.21969,-0.33347 -0.1226,-0.28119 -0.1226,-0.28119 -0.0521,-0.02 -0.0521,-0.02 v 0.10863 0.10862 l 0.0745,0.31084 0.0745,0.31083 5e-5,0.24304 5e-5,0.24303 -0.0403,0.1451 -0.0403,0.1451 -0.18206,0.18206 -0.18207,0.18206 h -0.0809 -0.0809 l 0.13302,-0.14723 0.13302,-0.14724 0.0464,-0.15497 0.0464,-0.15497 -0.0463,-0.22433 -0.0463,-0.22432 -0.11426,-0.2867 -0.11427,-0.2867 -0.0238,-0.41359 -0.0238,-0.4136 -0.0665,-0.0912 -0.0665,-0.0912 -0.11242,-0.16826 -0.11242,-0.16825 -0.0922,-0.2917 -0.0922,-0.2917 v -0.14037 -0.14037 l 0.0767,-0.22711 0.0767,-0.2271 0.12976,-0.1516 0.12977,-0.15161 0.0337,-0.19874 0.0336,-0.19875 0.0233,-0.42998 0.0233,-0.42998 0.0567,-0.38821 0.0567,-0.3882 0.10487,-0.3121 0.10488,-0.31211 0.12654,-0.20976 0.12654,-0.20977 0.20032,-0.22196 0.20033,-0.22195 0.23551,-0.16806 0.23551,-0.16805 0.32296,-0.15135 0.32296,-0.15134 0.35376,-0.0897 0.35376,-0.0897 0.41401,-0.0433 0.41401,-0.0434 0.38298,0.0431 0.38297,0.0431 0.34158,0.0914 0.34158,0.0914 0.2353,0.099 0.2353,0.099 0.24304,0.15764 0.24303,0.15763 0.24719,0.23998 0.24719,0.23997 0.13849,0.217 0.13848,0.21699 0.088,0.23378 0.088,0.23378 0.0587,0.27833 0.0586,0.27833 0.0423,0.74779 0.0423,0.7478 0.07,0.14956 0.07,0.14956 0.12839,0.15812 0.1284,0.15813 0.0443,0.21322 0.0443,0.21321 -0.0252,0.22265 -0.0252,0.22265 -0.0747,0.1996 -0.0747,0.1996 -0.16287,0.22125 -0.16288,0.22125 -0.0591,0.11435 -0.0591,0.11434 v 0.26048 0.26047 l -0.14642,0.40874 -0.14642,0.40875 -0.0251,0.16731 -0.0251,0.16732 0.0574,0.13744 0.0574,0.13744 0.0954,0.12506 0.0954,0.12506 v 0.0245 0.0245 h -0.0571 -0.0571 l -0.16143,-0.16143 -0.16143,-0.16143 -0.0619,-0.18174 -0.0619,-0.18174 6.4e-4,-0.20833 6.5e-4,-0.20833 0.0735,-0.28042 0.0735,-0.28043 6.4e-4,-0.0863 6.4e-4,-0.0863 -0.0381,0.0235 -0.0381,0.0236 -0.16617,0.33388 -0.16616,0.33388 -0.15841,0.23367 -0.1584,0.23367 -0.28738,0.28776 -0.28737,0.28775 -0.26535,0.17166 -0.26536,0.17165 -0.26289,0.11187 -0.2629,0.11188 -0.27056,0.0351 -0.27057,0.0352 -0.20564,-0.003 -0.20565,-0.003 -0.19055,-0.0319 z m 0.97573,-0.44935 0.14956,-0.0409 0.29912,-0.14939 0.29912,-0.1494 0.19891,-0.15259 0.19892,-0.15259 0.20488,-0.24582 0.20487,-0.24581 0.13635,-0.20434 0.13636,-0.20434 0.17954,-0.42368 0.17955,-0.42367 0.0567,-0.10963 0.0567,-0.10963 0.18555,-0.0798 0.18555,-0.0798 0.15376,-0.16681 0.15377,-0.16682 0.0981,-0.21219 0.0981,-0.2122 0.001,-0.23032 10e-4,-0.23033 -0.11395,-0.16227 -0.11395,-0.16226 h -0.0532 -0.0533 l -0.10682,0.26173 -0.10682,0.26172 -0.11302,0.24304 -0.11301,0.24303 -0.0372,-0.0935 -0.0372,-0.0935 0.0255,-0.77225 0.0255,-0.77225 -0.21862,-0.14847 -0.21862,-0.14846 -0.24871,-0.26364 -0.2487,-0.26364 -0.15607,-0.22981 -0.15606,-0.22982 -0.10877,-0.23243 -0.10876,-0.23243 -0.0618,-0.30827 -0.0618,-0.30828 -0.0401,0.0134 -0.0401,0.0134 -0.0294,0.14165 -0.0294,0.14165 -0.14995,0.28823 -0.14996,0.28823 -0.18841,0.2114 -0.18842,0.2114 -0.30937,0.20585 -0.30936,0.20584 -0.28569,0.1302 -0.28569,0.13019 -0.42167,0.13198 -0.42167,0.13198 -0.3552,0.0728 -0.3552,0.0728 -0.24304,0.0918 -0.24303,0.0918 -0.0305,0.72377 -0.0305,0.72377 -0.034,0.0346 -0.034,0.0346 -0.0901,-0.20284 -0.0901,-0.20285 -0.10209,-0.27392 -0.1021,-0.27392 -0.0531,-0.0204 -0.0531,-0.0204 -0.0772,0.0699 -0.0772,0.0699 -0.0523,0.10105 -0.0523,0.10106 v 0.16425 0.16426 l 0.073,0.21233 0.073,0.21232 0.11925,0.16605 0.11924,0.16605 0.13487,0.0905 0.13486,0.0905 0.10008,0.023 0.10009,0.023 0.0924,0.19628 0.0924,0.19627 0.1883,0.40167 0.18831,0.40167 0.19505,0.28215 0.19505,0.28215 0.28783,0.27076 0.28782,0.27076 0.22815,0.12161 0.22815,0.1216 0.27288,0.0715 0.27289,0.0715 0.29911,0.002 0.29912,0.002 0.14956,-0.0409 z m -2.15279,-3.43308 -0.10929,-0.10929 v -0.11329 -0.11328 l 0.0394,-0.0866 0.0395,-0.0866 0.12855,-0.0881 0.12855,-0.0881 0.11318,0.0469 0.11319,0.0469 0.0927,0.11019 0.0927,0.11019 v 0.0925 0.0925 l -0.0565,0.10921 -0.0565,0.1092 -0.0719,0.0385 -0.0719,0.0385 h -0.1362 -0.1362 z m 2.83886,0.003 -0.11899,-0.10632 v -0.11818 -0.11818 l 0.0506,-0.0946 0.0506,-0.0946 0.1253,-0.0774 0.1253,-0.0774 0.11149,0.0462 0.11148,0.0462 0.0927,0.11019 0.0927,0.11019 v 0.0738 0.0738 l -0.0567,0.10968 -0.0567,0.10968 -0.10968,0.0567 -0.10968,0.0567 h -0.0947 -0.0947 z m -2.97619,-5.65666 -0.0467,-0.0474 v -0.11741 -0.11742 l 0.11779,-0.23573 0.1178,-0.23573 0.22806,-0.23245 0.22806,-0.23245 0.22629,-0.11415 0.2263,-0.11414 0.21792,-0.0633 0.21793,-0.0633 0.32374,0.001 0.32374,10e-4 0.24157,0.081 0.24156,0.081 0.13086,0.0779 0.13087,0.0779 0.15866,0.12691 0.15866,0.12691 0.17647,0.2473 0.17647,0.24731 0.0638,0.18846 0.0638,0.18846 -0.0357,0.0667 -0.0357,0.0667 h -0.11568 -0.11568 l -0.2523,-0.091 -0.25231,-0.091 -0.29437,-0.0632 -0.29437,-0.0632 -0.48607,-0.002 -0.48606,-0.002 -0.23682,0.0465 -0.23681,0.0465 -0.32403,0.11195 -0.32404,0.11195 -0.0935,0.0192 -0.0935,0.0192 z"
       id="path23804" />
    <path
       style="fill:#000000;stroke-width:0.0375414"
       d="m 102.63099,164.97784 -0.24903,-0.0291 -0.33286,-0.0832 -0.33286,-0.0832 -0.28156,-0.10475 -0.28156,-0.10475 -0.2084,-0.0934 -0.20839,-0.0933 -0.29579,-0.17487 -0.29579,-0.17488 -0.304071,-0.23743 -0.304069,-0.23744 -0.306123,-0.3234 -0.306122,-0.32339 -0.229049,-0.34244 -0.229049,-0.34243 -0.16594,-0.34282 -0.16594,-0.34283 -0.11205,-0.33787 -0.112049,-0.33787 -0.08461,-0.39419 -0.08461,-0.39418 7.79e-4,-0.69452 7.78e-4,-0.69452 0.08182,-0.38249 0.08182,-0.38248 0.115371,-0.3308 0.115371,-0.3308 0.185906,-0.37542 0.185907,-0.37541 0.252219,-0.35405 0.252219,-0.35405 0.358434,-0.35924 0.358433,-0.35924 0.305965,-0.21818 0.30597,-0.21818 0.3872,-0.20221 0.3872,-0.2022 0.39374,-0.13101 0.39375,-0.131 0.3191,-0.068 0.3191,-0.068 h 0.78837 0.78837 l 0.3897,0.0873 0.3897,0.0873 0.32359,0.11319 0.32359,0.11318 0.38676,0.20082 0.38676,0.20081 0.30627,0.21818 0.30628,0.21818 0.34077,0.33788 0.34077,0.33787 0.19158,0.25855 0.19158,0.25856 0.1694,0.28579 0.1694,0.2858 0.15713,0.36899 0.15712,0.36899 0.10622,0.4206 0.10622,0.42059 0.0454,0.45339 0.0454,0.45339 -0.0426,0.46516 -0.0426,0.46516 -0.0586,0.28156 -0.0586,0.28156 -0.12733,0.38345 -0.12732,0.38345 -0.17137,0.34861 -0.17137,0.34861 -0.0777,0.093 -0.0777,0.093 -0.36579,-0.3751 -0.36579,-0.3751 -0.0212,-0.11101 -0.0212,-0.11101 0.069,-0.20757 0.069,-0.20758 0.11505,-0.31236 0.11505,-0.31237 0.0415,-0.4553 0.0416,-0.45531 -0.0168,-0.52751 -0.0168,-0.52751 -0.12241,-0.35664 -0.12242,-0.35664 -0.1886,-0.36847 -0.1886,-0.36847 -0.25312,-0.32752 -0.25313,-0.32752 -0.20202,-0.18209 -0.20202,-0.18209 -0.26279,-0.1859 -0.26279,-0.1859 -0.25223,-0.12784 -0.25223,-0.12784 -0.23581,-0.0887 -0.23581,-0.0887 -0.35664,-0.0868 -0.35665,-0.0868 -0.54435,-8.8e-4 -0.54435,-8.8e-4 -0.24402,0.0481 -0.24402,0.0481 -0.33787,0.10883 -0.33787,0.10883 -0.24873,0.12594 -0.24873,0.12594 -0.27685,0.18315 -0.27685,0.18315 -0.34162,0.33904 -0.341611,0.33903 -0.198645,0.2971 -0.198647,0.2971 -0.165543,0.34947 -0.165543,0.34946 -0.09678,0.36706 -0.09678,0.36705 -7.72e-4,0.67575 -7.72e-4,0.67574 0.05954,0.26338 0.05954,0.26337 0.100342,0.28098 0.100341,0.28098 0.154999,0.30033 0.154998,0.30033 0.213412,0.28156 0.213411,0.28156 0.23752,0.23131 0.23751,0.23131 0.2861,0.20349 0.2861,0.20349 0.31524,0.15401 0.31523,0.15401 0.29934,0.0977 0.29933,0.0977 0.35697,0.0588 0.35697,0.0588 0.46927,-0.0213 0.46927,-0.0213 0.316,-0.0774 0.31601,-0.0774 0.48622,-0.19149 0.48623,-0.19149 0.45359,0.45359 0.45358,0.45358 -0.50499,0.24337 -0.50499,0.24336 -0.30033,0.0969 -0.30033,0.0969 -0.362,0.0742 -0.362,0.0742 -0.35128,0.037 -0.35129,0.037 -0.28156,-0.004 -0.28157,-0.004 -0.24903,-0.0291 z m 7.08158,0.0164 -0.0751,-0.0181 -0.30033,-0.0571 -0.30033,-0.0571 -0.38109,-0.12678 -0.3811,-0.12677 -0.29665,-0.14915 -0.29665,-0.14915 -0.35465,-0.23694 -0.35464,-0.23693 -0.47444,-0.4622 -0.47444,-0.4622 -0.23329,-0.32716 -0.23329,-0.32717 -0.15012,-0.29763 -0.15011,-0.29763 -0.12657,-0.33167 -0.12658,-0.33168 -0.0593,-0.21538 -0.0594,-0.21538 -0.0331,-0.54435 -0.0331,-0.54435 0.031,-0.6404 0.031,-0.6404 0.15293,-0.45739 0.15293,-0.4574 0.16597,-0.32878 0.16598,-0.32878 0.091,-0.1581 0.091,-0.15811 0.34355,0.34582 0.34355,0.34581 0.0575,0.13866 0.0575,0.13866 -0.0718,0.21798 -0.0718,0.21798 -0.0949,0.25005 -0.0949,0.25004 -0.0652,0.33185 -0.0652,0.33185 0.002,0.54435 0.002,0.54435 0.0788,0.37542 0.0788,0.37541 0.0988,0.24402 0.0988,0.24402 0.13336,0.23914 0.13336,0.23913 0.22502,0.30522 0.22503,0.30521 0.28637,0.28382 0.28637,0.28382 0.23846,0.16194 0.23847,0.16194 0.34379,0.16285 0.34379,0.16286 0.3497,0.0936 0.34969,0.0936 0.38052,0.0442 0.38053,0.0442 0.3284,-0.0233 0.32841,-0.0233 0.29155,-0.0602 0.29156,-0.0601 0.22525,-0.0764 0.22524,-0.0764 0.27047,-0.12342 0.27047,-0.12342 0.3416,-0.23397 0.34161,-0.23397 0.27973,-0.28546 0.27972,-0.28545 0.16643,-0.2235 0.16643,-0.2235 0.15163,-0.30208 0.15164,-0.30208 0.0942,-0.27743 0.0943,-0.27743 0.056,-0.29532 0.056,-0.29532 0.0241,-0.34702 0.0241,-0.34701 -0.0435,-0.40183 -0.0435,-0.40183 -0.0757,-0.29269 -0.0757,-0.29269 -0.16479,-0.34109 -0.16478,-0.34108 -0.23334,-0.3147 -0.23333,-0.3147 -0.28503,-0.28446 -0.28502,-0.28445 -0.21772,-0.16041 -0.21773,-0.1604 -0.27604,-0.14889 -0.27604,-0.1489 -0.30505,-0.11133 -0.30506,-0.11133 -0.32295,-0.0563 -0.32296,-0.0563 -0.51128,1.5e-4 -0.51128,1.5e-4 -0.33787,0.0551 -0.33787,0.0551 -0.20648,0.0611 -0.20648,0.0611 -0.25547,0.12765 -0.25547,0.12764 h -0.0869 -0.0869 l -0.33336,-0.3319 -0.33336,-0.33191 -0.0535,-0.10026 -0.0535,-0.10026 0.0723,-0.0555 0.0723,-0.0555 0.37542,-0.18477 0.37541,-0.18477 0.3723,-0.11782 0.37229,-0.11783 0.45362,-0.0775 0.45361,-0.0775 0.65698,0.0203 0.65697,0.0204 0.34846,0.0751 0.34845,0.0751 0.30852,0.102 0.30852,0.10201 0.31682,0.14555 0.31682,0.14556 0.3777,0.25086 0.3777,0.25086 0.39418,0.39631 0.39419,0.39631 0.21818,0.30732 0.21818,0.30732 0.20111,0.38676 0.20112,0.38676 0.13451,0.38864 0.13451,0.38864 0.0818,0.38096 0.0818,0.38096 0.003,0.71329 0.003,0.71329 -0.0673,0.3191 -0.0673,0.3191 -0.0977,0.30033 -0.0977,0.30033 -0.13861,0.30034 -0.13861,0.30033 -0.16108,0.26279 -0.16108,0.26279 -0.23455,0.30033 -0.23455,0.30033 -0.37068,0.35664 -0.37067,0.35665 -0.29122,0.19952 -0.29122,0.19953 -0.38453,0.18322 -0.38453,0.18321 -0.35636,0.11509 -0.35636,0.11508 -0.39447,0.0797 -0.39446,0.0797 -0.60067,0.0115 -0.60066,0.0115 -0.0751,-0.0181 z m -7.0537,-6.47524 -0.0171,-0.0532 -0.0618,-0.29116 -0.0618,-0.29117 -0.094,-0.11173 -0.094,-0.11172 -0.13801,-0.0374 -0.13802,-0.0374 -0.21521,-0.0409 -0.2152,-0.0409 -0.0205,-0.0331 -0.0205,-0.0331 0.0667,-0.0351 0.0668,-0.0351 0.20648,-0.0268 0.20648,-0.0268 0.15519,-0.0673 0.15519,-0.0674 0.0587,-0.18236 0.0587,-0.18236 0.0448,-0.24402 0.0448,-0.24402 0.0264,-0.0505 0.0264,-0.0505 0.0491,0.23821 0.0491,0.23822 0.071,0.23478 0.071,0.23479 0.0829,0.0538 0.0829,0.0538 0.26279,0.0421 0.26279,0.042 0.0902,0.0372 0.0902,0.0372 -0.0365,0.0365 -0.0365,0.0365 -0.31643,0.0595 -0.31643,0.0595 -0.0689,0.0366 -0.0689,0.0366 -0.0515,0.12337 -0.0515,0.12336 -0.0619,0.27718 -0.0619,0.27718 -0.0323,0.0344 -0.0323,0.0344 z m 8.12199,-0.21276 -0.0446,-0.21586 -0.0427,-0.16499 -0.0427,-0.16499 -0.0937,-0.0691 -0.0937,-0.0691 -0.298,-0.0564 -0.29799,-0.0564 -0.0345,-0.0345 -0.0345,-0.0345 0.0697,-0.0356 0.0697,-0.0356 0.24354,-0.0466 0.24354,-0.0466 0.0984,-0.0509 0.0984,-0.0509 0.0424,-0.105 0.0424,-0.10501 0.0529,-0.25711 0.0529,-0.2571 0.0379,-0.0379 0.0379,-0.0379 0.036,0.0697 0.036,0.0697 0.0478,0.25868 0.0478,0.25869 0.0995,0.11138 0.0995,0.11138 0.33291,0.0707 0.33292,0.0707 0.0221,0.0222 0.0221,0.0221 -0.0652,0.0477 -0.0652,0.0477 -0.26777,0.0442 -0.26777,0.0442 -0.0702,0.0375 -0.0702,0.0376 -0.0531,0.10261 -0.0531,0.1026 -0.0466,0.24354 -0.0466,0.24354 -0.0335,0.0657 -0.0335,0.0657 h -0.0335 -0.0335 z m -4.23442,-4.61554 -0.0405,-0.0756 -0.0397,-0.24851 -0.0397,-0.24851 -0.0331,-0.087 -0.0331,-0.087 -0.0508,-0.0417 -0.0508,-0.0417 -0.15016,-0.0383 -0.15017,-0.0383 -0.21586,-0.0431 -0.21586,-0.0431 v -0.0529 -0.0529 l 0.0845,-0.0188 0.0845,-0.0188 0.26189,-0.0584 0.26189,-0.0584 0.0858,-0.0806 0.0858,-0.0806 0.0341,-0.13384 0.0341,-0.13384 0.0242,-0.18951 0.0242,-0.1895 0.0335,-0.0542 0.0335,-0.0542 0.0381,0.0381 0.0381,0.0381 0.055,0.28748 0.055,0.28747 0.0568,0.10993 0.0568,0.10993 0.10501,0.0424 0.10501,0.0424 0.28103,0.0581 0.28103,0.0581 0.0344,0.0344 0.0344,0.0344 -0.0902,0.0372 -0.0902,0.0372 -0.2601,0.042 -0.26011,0.042 -0.0684,0.0366 -0.0684,0.0366 -0.0554,0.0846 -0.0554,0.0846 -0.0554,0.28966 -0.0554,0.28966 -0.0348,0.0622 -0.0348,0.0622 z"
       id="path23904" />
    <path
       style="fill:#000000;stroke-width:0.0386281"
       d="m 105.87464,212.77663 -0.15453,-0.0165 -0.32693,-0.0595 -0.32694,-0.0595 -0.36837,-0.11632 -0.36836,-0.11632 -0.50217,-0.24409 -0.50216,-0.24409 -0.32835,-0.22043 -0.32834,-0.22043 -0.25835,-0.21067 -0.25835,-0.21069 -0.24382,-0.25848 -0.2438,-0.25849 -0.24451,-0.32816 -0.24451,-0.32815 -0.20753,-0.36697 -0.20753,-0.36697 -0.15414,-0.38628 -0.15414,-0.38628 -0.0969,-0.33564 -0.0969,-0.33565 -0.0616,-0.41469 -0.0616,-0.41469 9.9e-4,-0.57535 9.9e-4,-0.57534 0.0596,-0.37396 0.0596,-0.37396 0.0952,-0.35159 0.0952,-0.3516 0.13802,-0.34371 0.13801,-0.34372 0.15558,-0.28971 0.15559,-0.28971 0.17953,-0.2704 0.17953,-0.2704 0.26306,-0.30902 0.26308,-0.30902 0.33609,-0.30254 0.33608,-0.30253 0.40467,-0.26907 0.40466,-0.26906 0.46447,-0.22488 0.46447,-0.22489 0.14893,-0.048 0.14894,-0.048 0.0983,0.0526 0.0983,0.0526 0.36107,0.46354 0.36105,0.46354 9e-5,0.0229 8e-5,0.0229 -0.31607,0.0867 -0.31606,0.0867 -0.34086,0.14695 -0.34086,0.14696 -0.26284,0.15615 -0.26285,0.15615 -0.23972,0.1802 -0.23972,0.18021 -0.28611,0.2861 -0.2861,0.2861 -0.1919,0.25623 -0.19188,0.25623 -0.17456,0.29408 -0.17455,0.29406 -0.14301,0.34623 -0.14299,0.34623 -0.0921,0.36318 -0.0921,0.36317 -0.0405,0.43602 -0.0405,0.43603 0.0399,0.38923 0.0399,0.38925 0.0607,0.29376 0.0607,0.29377 0.11757,0.33474 0.11756,0.33474 0.18845,0.36698 0.18847,0.36696 0.24985,0.3319 0.24986,0.33189 0.32276,0.30548 0.32275,0.30546 0.32626,0.21692 0.32626,0.21693 0.324,0.1628 0.32401,0.16281 0.46787,0.16106 0.46785,0.16107 1.02365,-4.4e-4 1.02364,-4.5e-4 0.38629,-0.12938 0.38628,-0.12939 0.39453,-0.18546 0.39453,-0.18546 0.32822,-0.21395 0.32823,-0.21394 0.31463,-0.3006 0.31463,-0.3006 0.24557,-0.32896 0.24556,-0.32897 0.21249,-0.40791 0.21251,-0.40789 0.13342,-0.4033 0.1334,-0.40328 0.0611,-0.36413 0.0612,-0.36411 v -0.48855 -0.48855 l -0.0624,-0.36412 -0.0624,-0.36412 -0.11036,-0.33823 -0.11037,-0.33822 -0.13709,-0.2967 -0.13707,-0.2967 -0.25828,-0.38873 -0.25827,-0.38871 -0.37352,-0.37138 -0.37353,-0.37136 -0.38381,-0.25552 -0.38381,-0.25551 -0.29617,-0.13684 -0.29616,-0.13683 -0.33406,-0.11791 -0.33407,-0.11791 -0.0956,-0.0363 -0.0956,-0.0363 0.0667,-0.10563 0.0669,-0.10564 0.31111,-0.41526 0.31111,-0.41525 h 0.0887 0.0887 l 0.30038,0.11891 0.30036,0.11892 0.40561,0.21095 0.40559,0.21095 0.3663,0.25921 0.3663,0.25922 0.42557,0.42557 0.42559,0.42559 0.26091,0.36629 0.2609,0.36631 0.24829,0.50215 0.2483,0.50217 0.11858,0.36131 0.11859,0.36131 0.0856,0.39194 0.0856,0.39194 v 0.88845 0.88844 l -0.0864,0.3959 -0.0864,0.39591 -0.11883,0.35734 -0.11882,0.35735 -0.14933,0.32077 -0.14933,0.32079 -0.14346,0.23933 -0.14346,0.23933 -0.2684,0.36 -0.26838,0.36 -0.37209,0.3646 -0.37208,0.36459 -0.29945,0.22424 -0.29945,0.22425 -0.31715,0.18866 -0.31716,0.18866 -0.38754,0.1639 -0.38752,0.1639 -0.34713,0.10027 -0.34715,0.10028 -0.32885,0.0602 -0.32886,0.0603 -0.67599,0.0115 -0.67599,0.0115 z m 0.61933,-11.77715 -0.0994,-0.22465 -0.30385,-0.87229 -0.30385,-0.87229 -0.089,-0.27918 -0.089,-0.27917 0.0298,-0.0299 0.0298,-0.0298 0.96255,-0.0116 0.96255,-0.0115 v 0.0351 0.0351 l -0.31092,0.90356 -0.31093,0.90357 -0.15782,0.44422 -0.15782,0.44423 -0.0314,0.0347 -0.0314,0.0347 z m 0.73364,-0.48982 0.16679,-0.47508 0.28003,-0.8152 0.28006,-0.81519 0.5436,-0.0232 0.54362,-0.0232 0.0331,0.0331 0.0331,0.0331 -0.0909,0.13115 -0.0909,0.13115 -0.57943,0.7481 -0.57942,0.7481 -0.30902,0.38651 -0.30903,0.38652 -0.0443,0.0147 -0.0443,0.0146 z m -1.28884,0.34298 -0.0904,-0.0965 -0.88013,-1.15267 -0.88014,-1.15268 0.21726,-0.0295 0.21726,-0.0295 0.34213,0.0103 0.34214,0.0103 0.0888,0.2365 0.0888,0.23652 0.33336,0.97799 0.33337,0.97801 -0.011,0.0539 -0.011,0.054 z m -2.83893,-0.86313 -0.0258,-0.0258 -1.4e-4,-0.13842 -1.5e-4,-0.13842 -0.078,-0.12787 -0.078,-0.12786 -0.12471,-0.0508 -0.12468,-0.0507 -0.20815,-0.0487 -0.20813,-0.0487 0.0536,-0.028 0.0537,-0.028 0.28335,-0.0718 0.28335,-0.0718 0.0495,-0.0979 0.0495,-0.0979 0.0279,-0.15381 0.0279,-0.1538 0.0371,-0.0694 0.0371,-0.0694 0.0367,0.0227 0.0367,0.0227 v 0.13416 0.13417 l 0.0547,0.13094 0.0547,0.13096 0.0902,0.0566 0.0902,0.0566 0.15381,0.0271 0.15379,0.027 0.0724,0.0388 0.0724,0.0388 -0.0344,0.0345 -0.0345,0.0344 -0.20884,0.0396 -0.20884,0.0396 -0.0858,0.0562 -0.0858,0.0562 -0.0258,0.12686 -0.0258,0.12685 -0.0369,0.14485 -0.0369,0.14486 h -0.0307 -0.0307 l -0.0258,-0.0258 z m 1.09686,-1.97834 -0.0556,-0.0374 0.1495,-0.24432 0.14949,-0.2443 0.16517,-0.24824 0.16517,-0.24825 0.0356,0.0937 0.0356,0.0937 0.1233,0.39959 0.12331,0.3996 -0.0125,0.0117 -0.0125,0.0117 -0.40559,0.0251 -0.4056,0.0251 z m 1.62964,0.007 -0.0869,-0.0167 v -0.0299 -0.0299 l 0.30294,-0.40239 0.30294,-0.40236 0.14306,-0.1517 0.14307,-0.15169 0.0704,0.11352 0.0704,0.11353 0.3523,0.4583 0.3523,0.4583 -0.0211,0.0341 -0.0212,0.0342 -0.76062,-0.005 -0.76063,-0.005 z m 2.51155,-0.009 -0.16345,-0.0266 -0.0271,-0.0271 -0.0271,-0.0271 0.10843,-0.37604 0.10842,-0.37603 0.0357,-0.0944 0.0357,-0.0944 0.31183,0.46954 0.31184,0.46955 -0.0228,0.0594 -0.0228,0.0594 -0.24265,-0.005 -0.24263,-0.004 z m -0.73427,-0.41753 -0.15172,-0.18352 -0.22431,-0.30037 -0.2243,-0.30037 0.0279,-0.028 0.0279,-0.028 0.54298,-0.0127 0.54297,-0.0127 -0.0228,0.0593 -0.0228,0.0593 -0.13882,0.44467 -0.13882,0.44467 -0.0332,0.0205 -0.0332,0.0205 z m -2.26643,0.0227 -0.0536,-0.12894 -0.10621,-0.34182 -0.10622,-0.34183 0.054,-0.0342 0.0541,-0.0343 0.51183,-5.9e-4 0.51182,-5.8e-4 v 0.0293 0.0293 l -0.36791,0.46317 -0.36791,0.46317 -0.0382,0.0131 -0.0382,0.0131 z m 4.32904,-0.17723 -0.0178,-0.0289 -0.0286,-0.19071 -0.0286,-0.19071 -0.0828,-0.0828 -0.0828,-0.0828 -0.25938,-0.0703 -0.25938,-0.0703 v -0.0273 -0.0273 l 0.26075,-0.0633 0.26074,-0.0633 0.0792,-0.09 0.0792,-0.09 0.0508,-0.22695 0.0508,-0.22695 0.0507,0.0692 0.0507,0.0692 0.0258,0.16059 0.0258,0.16062 0.0521,0.0822 0.052,0.0822 0.27292,0.0669 0.27294,0.0668 0.0195,0.0316 0.0195,0.0316 -0.0682,0.0188 -0.0682,0.0188 -0.20307,0.0459 -0.20308,0.046 -0.077,0.0978 -0.077,0.0979 -3e-4,0.0624 -2.9e-4,0.0624 -0.0402,0.14487 -0.0402,0.14485 h -0.0345 -0.0344 l -0.0179,-0.029 z m -3.11302,-1.74308 -0.0387,-0.0724 -0.0267,-0.16732 -0.0267,-0.16732 -0.0857,-0.0857 -0.0857,-0.0857 -0.23732,-0.0466 -0.23731,-0.0467 -0.0223,-0.036 -0.0223,-0.0359 0.0176,-0.0176 0.0176,-0.0176 0.26088,-0.0723 0.26089,-0.0723 0.0548,-0.0548 0.0548,-0.0548 0.0665,-0.24548 0.0665,-0.24547 0.0433,-0.0143 0.0434,-0.0143 0.0237,0.0885 0.0237,0.0885 5.9e-4,0.10814 5.8e-4,0.10815 0.0582,0.11248 0.0582,0.11248 0.14462,0.0397 0.14464,0.0397 0.16417,0.0405 0.16416,0.0406 v 0.0353 0.0353 l -0.14485,0.0402 -0.14485,0.0402 -0.0773,3e-4 -0.0773,2.9e-4 -0.12451,0.0759 -0.1245,0.0759 -0.0183,0.0881 -0.0183,0.0881 -0.0237,0.18349 -0.0237,0.18348 h -0.0349 -0.0349 l -0.0388,-0.0724 z"
       id="path23704" />
    <path
       style="fill:#000000;stroke-width:0.030438"
       d="m 103.58216,257.03546 -0.45657,-0.0892 -1.08055,-0.21227 -1.08054,-0.21228 -0.45657,-0.1062 -0.45657,-0.10619 -0.05327,-0.0645 -0.05326,-0.0645 v -0.10147 -0.10146 l 0.07364,-0.0854 0.0736,-0.0854 0.19269,0.005 0.1927,0.005 0.51744,0.0932 0.51745,0.0932 0.18,0.008 0.17999,0.008 0.0553,-0.2435 0.0553,-0.2435 0.3022,-1.52191 0.30221,-1.52189 0.0531,-0.30834 0.0531,-0.30833 -0.0181,-0.047 -0.0181,-0.047 -0.2986,-0.15421 -0.2986,-0.1542 -0.20881,-0.15739 -0.20882,-0.1574 -0.17923,-0.21573 -0.17921,-0.21574 -0.13318,-0.25872 -0.13319,-0.25873 -0.0641,-0.19784 -0.0641,-0.19785 -0.0477,-0.21306 -0.0477,-0.21307 -0.0177,-0.51973 -0.0178,-0.51972 0.0354,-0.3021 0.0354,-0.3021 0.0764,-0.38048 0.0764,-0.38048 0.10809,-0.39569 0.10808,-0.39569 0.19793,-0.62398 0.19794,-0.62398 0.19123,-0.53266 0.19122,-0.53267 0.19002,-0.47179 0.19001,-0.47179 0.15199,-0.29803 0.15198,-0.29803 0.11013,-0.0748 0.11012,-0.0748 0.10708,1.2e-4 0.10708,1.3e-4 0.28916,0.0465 0.28916,0.0465 1.02069,0.19694 1.02069,0.19694 0.37248,0.091 0.37248,0.091 0.11351,0.0603 0.11351,0.0603 0.10334,0.0874 0.10333,0.0874 0.10402,-0.11515 0.10403,-0.11514 0.14268,-0.0461 0.14267,-0.0461 0.24351,-0.0609 0.2435,-0.0609 1.11099,-0.21171 1.11099,-0.21172 0.2946,-0.0349 0.29461,-0.0349 0.11631,0.0211 0.11631,0.0211 0.0821,0.0415 0.0821,0.0415 0.0788,0.10326 0.0787,0.10325 0.16932,0.40662 0.16931,0.40662 0.22772,0.59354 0.22773,0.59354 0.20816,0.62398 0.20816,0.62397 0.15424,0.56311 0.15423,0.5631 0.0762,0.3555 0.0762,0.35549 0.0465,0.30945 0.0465,0.30945 0.0184,0.30907 0.0184,0.30908 -0.0355,0.28915 -0.0355,0.28917 -0.0596,0.23368 -0.0596,0.23368 -0.10432,0.24736 -0.10432,0.24736 -0.1435,0.23023 -0.1435,0.23023 -0.1844,0.19712 -0.18439,0.19713 -0.18407,0.13047 -0.18407,0.13046 -0.16741,0.0831 -0.16741,0.0831 -0.10182,0.0764 -0.10181,0.0765 0.0205,0.14083 0.0205,0.14082 0.19719,1.06533 0.19719,1.06533 0.16708,0.85227 0.16708,0.85226 0.0158,0.0533 0.0158,0.0533 0.1273,-0.0189 0.1273,-0.0189 0.55901,-0.1024 0.55902,-0.10241 0.18941,-0.0194 0.18942,-0.0194 0.0655,0.0351 0.0655,0.035 0.046,0.0889 0.046,0.0889 v 0.0583 0.0583 l -0.0612,0.0778 -0.0612,0.0777 -0.38781,0.0918 -0.3878,0.0918 -0.86749,0.17094 -0.86748,0.17094 -0.61661,0.10501 -0.61661,0.105 h -0.20605 -0.20606 l -0.0677,-0.0474 -0.0676,-0.0474 v -0.12203 -0.12202 l 0.0302,-0.0563 0.0302,-0.0563 0.14487,-0.0479 0.14487,-0.0479 0.53185,-0.10716 0.53184,-0.10716 0.17532,-0.0492 0.17532,-0.0492 0.0276,-0.0342 0.0276,-0.0342 -0.20589,-1.05011 -0.20589,-1.05011 -0.19291,-1.02649 -0.19291,-1.0265 -0.039,-0.015 -0.039,-0.015 -0.37306,-0.0484 -0.37306,-0.0484 -0.27394,-0.0913 -0.27395,-0.0913 -0.1674,-0.094 -0.16741,-0.0939 -0.16935,-0.13005 -0.16934,-0.13005 -0.17864,-0.19282 -0.17864,-0.19282 -0.15811,-0.24351 -0.1581,-0.2435 -0.0758,-0.15219 -0.0758,-0.15219 -0.10917,-0.27776 -0.10918,-0.27775 -0.0917,-0.34622 -0.0917,-0.34623 -0.0607,-0.35004 -0.0607,-0.35003 -0.0795,-0.7153 -0.0795,-0.71529 -0.0216,-0.12176 -0.0216,-0.12174 -0.055,0.54788 -0.055,0.54788 -0.0592,0.45657 -0.0592,0.45657 -0.0734,0.35697 -0.0734,0.35696 -0.1229,0.36756 -0.12289,0.36756 -0.15853,0.30864 -0.15854,0.30865 -0.17556,0.23298 -0.17557,0.23299 -0.2048,0.19159 -0.20481,0.19158 -0.202,0.13068 -0.202,0.13067 -0.16954,0.075 -0.16953,0.075 -0.17466,0.0508 -0.17466,0.0508 -0.333,0.0437 -0.333,0.0437 -0.0554,0.0297 -0.0555,0.0296 -0.0481,0.22132 -0.0481,0.22132 -0.13767,0.72279 -0.13767,0.72279 -0.19786,1.09131 -0.19786,1.09132 v 0.0634 0.0634 l 0.0533,0.0165 0.0533,0.0166 0.60877,0.12341 0.60875,0.12341 0.18546,0.0608 0.18545,0.0608 0.0657,0.0612 0.0657,0.0612 v 0.0637 0.0637 l -0.0614,0.0994 -0.0614,0.0994 -0.0745,0.0488 -0.0745,0.0488 -0.0239,-0.003 -0.0239,-0.003 -0.45657,-0.0892 z m 0.21458,-5.78155 0.23419,-0.0326 0.1928,-0.0596 0.1928,-0.0596 0.22205,-0.14852 0.22205,-0.14851 0.18686,-0.1946 0.18686,-0.1946 0.14266,-0.22052 0.14266,-0.22053 0.1024,-0.2247 0.10239,-0.2247 0.10802,-0.34112 0.10802,-0.34111 0.078,-0.39925 0.078,-0.39924 0.0582,-0.50761 0.0581,-0.50761 0.0331,-0.60338 0.0331,-0.60338 -0.009,-1.21608 -0.009,-1.21609 -0.50223,-0.10123 -0.50222,-0.10123 -1.00446,-0.1821 -1.00445,-0.18209 -0.0999,-0.0165 -0.0999,-0.0165 -0.0711,0.16137 -0.0711,0.16135 -0.19833,0.51745 -0.19834,0.51745 -0.24719,0.70835 -0.2472,0.70835 -0.0948,0.32141 -0.0948,0.32141 0.0264,0.026 0.0264,0.026 0.91314,0.18434 0.91314,0.18435 0.57072,0.10566 0.57071,0.10565 0.26297,0.0625 0.26295,0.0625 0.1205,0.0677 0.12049,0.0677 0.0427,0.0825 0.0427,0.0825 v 0.12184 0.12182 l -0.10505,0.57309 -0.10505,0.5731 -0.1104,0.36431 -0.11041,0.36431 -0.13145,0.27395 -0.13146,0.27396 -0.13876,0.18849 -0.13876,0.18849 -0.21796,0.15307 -0.21795,0.15306 -0.17147,0.0651 -0.17147,0.0651 -0.24351,0.0276 -0.2435,0.0276 -0.0988,0.0322 -0.0988,0.0322 -0.0457,0.0653 -0.0457,0.0653 v 0.0507 0.0507 l 0.054,0.0667 0.054,0.0667 0.1058,0.0249 0.1058,0.0249 0.0358,0.003 0.0358,0.003 z m 7.24274,-0.12688 0.0913,-0.0328 0.24875,-0.16297 0.24874,-0.16297 0.18799,-0.20511 0.18798,-0.2051 0.13589,-0.27927 0.13589,-0.27926 0.0592,-0.28384 0.0592,-0.28383 3.6e-4,-0.45783 3.5e-4,-0.45783 -0.0326,-0.24225 -0.0326,-0.24224 -0.0465,-0.25872 -0.0465,-0.25873 -0.10598,-0.42613 -0.106,-0.42613 -0.13629,-0.44993 -0.1363,-0.44992 -0.22833,-0.6401 -0.22834,-0.6401 -0.13165,-0.34056 -0.13164,-0.34057 -0.15983,-0.38866 -0.15982,-0.38866 -0.15625,0.0183 -0.15624,0.0183 -0.53267,0.0873 -0.53266,0.0873 -0.88271,0.1693 -0.8827,0.1693 -0.0685,0.0154 -0.0685,0.0154 2.1e-4,0.75276 2.2e-4,0.75276 0.0306,0.74573 0.0306,0.74574 0.0321,0.30437 0.0322,0.30438 0.0274,0.028 0.0274,0.028 0.49558,-0.081 0.49558,-0.081 1.37935,-0.25892 1.37936,-0.25893 h 0.0719 0.0719 l 0.0457,0.1598 0.0457,0.1598 0.10802,0.48701 0.10802,0.48701 0.065,0.38047 0.065,0.38048 -0.0164,0.41092 -0.0164,0.41091 -0.0653,0.22779 -0.0653,0.22778 -0.11194,0.21356 -0.11195,0.21357 -0.18301,0.18263 -0.18302,0.18262 -0.24986,0.13349 -0.24986,0.13349 -0.0504,0.0557 -0.0504,0.0557 v 0.077 0.077 l 0.0408,0.0491 0.0408,0.0491 0.0619,0.0243 0.0619,0.0243 0.0761,-0.015 0.0761,-0.015 0.0913,-0.0327 z"
       id="path24016" />
    <path
       style="fill:#000000;stroke-width:0.0357067"
       d="m 103.85381,303.17424 -0.12058,-0.0285 -0.14449,-0.10178 -0.14448,-0.10178 -0.0831,-0.15736 -0.0831,-0.15738 v -0.14846 -0.14847 l 0.27672,0.0488 0.27673,0.0488 0.49092,0.007 0.49092,0.007 5e-5,0.0636 5e-5,0.0636 -0.0553,0.13275 -0.0553,0.13276 -0.13153,0.13498 -0.13154,0.13499 -0.17671,0.0525 -0.17671,0.0525 -0.056,-0.004 -0.056,-0.004 z m 2.57928,-0.034 -0.11219,-0.0268 -0.13123,-0.0811 -0.13125,-0.0811 -0.0842,-0.12951 -0.0842,-0.1295 -0.0407,-0.15536 -0.0407,-0.15536 0.0128,-0.0128 0.0128,-0.0128 0.46271,-0.0915 0.46271,-0.0915 0.28011,-0.0226 0.28012,-0.0226 0.0318,0.0502 0.0318,0.0502 -2.5e-4,0.16068 -2.5e-4,0.16068 -0.0658,0.14482 -0.0658,0.14482 -0.15164,0.1298 -0.15164,0.1298 -0.17633,0.0378 -0.17633,0.0378 -0.025,-0.004 -0.025,-0.004 -0.11219,-0.0268 z m 3.10755,-0.0472 -0.11113,-0.0437 -0.12167,-0.0843 -0.12167,-0.0843 -0.0925,-0.12992 -0.0924,-0.12991 -0.0402,-0.12498 -0.0402,-0.12497 -0.55457,-3.35645 -0.55457,-3.35645 -0.018,-0.0803 -0.018,-0.0803 h -0.22317 -0.22318 l -0.16661,-0.41955 -0.16662,-0.41956 -0.18631,-0.33922 -0.1863,-0.33921 -0.10082,-0.19639 -0.10082,-0.19639 -0.041,-0.19638 -0.041,-0.19639 0.0197,-0.24995 0.0197,-0.24995 0.0781,-0.24995 0.0781,-0.24994 0.12813,-0.13212 0.12813,-0.13212 0.0776,-0.15209 0.0776,-0.15208 0.0908,0.17708 0.0908,0.17709 0.0566,0.0714 0.0566,0.0714 0.089,-0.10712 0.089,-0.10712 0.1252,-0.29847 0.1252,-0.29846 0.0537,-0.18358 0.0537,-0.18358 0.29435,-0.0818 0.29434,-0.0818 0.28566,-0.13851 0.28565,-0.13851 0.30351,-0.20356 0.30351,-0.20356 0.26906,-0.22245 0.26906,-0.22246 0.19513,0.13252 0.19513,0.13251 0.20532,0.11553 0.20531,0.11552 -1.1e-4,-0.048 -1e-4,-0.048 -0.087,-0.32136 -0.087,-0.32136 -0.0502,-0.14227 -0.0502,-0.14228 0.22609,-0.27776 0.22609,-0.27776 0.0758,-0.14858 0.0758,-0.14858 -0.0159,-0.19164 -0.0159,-0.19164 -0.0705,-0.0945 -0.0706,-0.0945 -0.0986,-0.0736 -0.0986,-0.0736 h -0.22054 -0.22056 l -0.11604,0.0828 -0.11605,0.0828 v -0.0329 -0.0329 l 0.0803,-0.11804 0.0803,-0.11805 0.0967,-0.0716 0.0967,-0.0716 0.19294,-0.016 0.19294,-0.016 0.13192,0.0626 0.13191,0.0626 0.0826,0.11102 0.0826,0.11102 0.19916,0.48204 0.19916,0.48205 0.1286,0.38455 0.1286,0.38455 0.0689,0.31174 0.0689,0.31173 6.9e-4,0.30833 6.8e-4,0.30834 -0.0601,0.18602 -0.0601,0.18602 -0.15377,0.17103 -0.15377,0.17103 -0.17,0.0801 -0.17,0.0801 -0.2678,-3.4e-4 -0.2678,-3.4e-4 -0.2321,-0.0781 -0.23209,-0.0781 -0.26663,-0.14292 -0.26663,-0.14292 -0.15472,-0.10442 -0.15472,-0.10442 h -0.0161 -0.0161 v 1.64255 1.64254 l 0.66277,3.99022 0.66278,3.99022 -0.0131,0.21424 -0.0131,0.21424 -0.0629,0.13032 -0.0629,0.13031 -0.12619,0.12619 -0.12618,0.12619 -0.13032,0.0634 -0.13032,0.0634 -0.24995,0.01 -0.24995,0.01 -0.11113,-0.0437 z m -5.86977,-0.83056 -0.30351,-0.047 -0.36726,-0.0741 -0.36726,-0.074 h -0.29763 -0.29763 l -0.0227,-0.20531 -0.0227,-0.20532 -0.0364,-0.70959 -0.0364,-0.70958 0.037,-0.74713 0.037,-0.74713 0.0698,-0.54366 0.0698,-0.54367 0.0744,-0.39198 0.0744,-0.39198 0.13985,-0.54187 0.13986,-0.54187 0.16595,-0.45792 0.16594,-0.45793 0.12559,-0.24995 0.12559,-0.24995 0.10146,-0.14787 0.10146,-0.14787 0.13485,0.0481 0.13485,0.0481 0.10713,10e-4 0.10712,0.001 0.12497,-0.0348 0.12497,-0.0348 0.13852,-0.11426 0.13851,-0.11426 0.066,-0.14535 0.066,-0.14535 v -0.16068 -0.16068 l -0.0687,-0.14283 -0.0687,-0.14283 -0.0556,-0.0695 -0.0556,-0.0695 -0.32752,-0.16261 -0.32752,-0.16261 -0.0268,-0.0536 -0.0268,-0.0536 -0.11179,-0.24995 -0.1118,-0.24994 -0.12897,-0.19957 -0.12897,-0.19957 -0.16352,0.0322 -0.16351,0.0322 -0.37493,0.004 -0.37492,0.004 -0.16068,-0.0752 -0.16068,-0.0752 -0.058,-0.0473 -0.058,-0.0473 -0.0758,-0.12434 -0.0758,-0.12435 2e-4,-0.17853 2e-4,-0.17853 0.10811,-0.18851 0.1081,-0.1885 0.22185,-0.16352 0.22185,-0.16352 0.24562,-0.12386 0.24562,-0.12385 0.41743,-0.13957 0.41744,-0.13957 0.42601,-0.0765 0.426,-0.0765 0.62487,-0.002 0.62487,-0.002 0.32323,0.075 0.32323,0.075 0.49803,0.1845 0.49802,0.18451 0.2321,0.0191 0.23209,0.019 0.28206,-0.0948 0.28205,-0.0948 0.25355,-0.14712 0.25355,-0.14712 0.2678,-0.19877 0.26781,-0.19877 0.36059,-0.35778 0.3606,-0.35779 0.2018,-0.271 0.20181,-0.27101 0.0909,-0.0414 0.0909,-0.0414 h 0.1467 0.1467 l 0.11827,0.0902 0.11827,0.0902 0.0411,0.13731 0.0411,0.13731 -0.0428,0.12969 -0.0428,0.12969 -0.24236,0.3123 -0.24235,0.3123 -0.37078,0.35814 -0.37077,0.35814 -0.21424,0.16363 -0.21424,0.16363 -0.30871,0.20112 -0.30871,0.20111 -0.24475,0.10984 -0.24475,0.10983 -0.2678,0.0749 -0.2678,0.0749 -0.36198,-0.002 -0.36197,-0.002 -0.0731,0.16515 -0.0731,0.16516 -0.0162,0.21682 -0.0162,0.21683 -0.0722,0.14024 -0.0722,0.14024 -0.12891,0.12384 -0.12891,0.12383 -0.0684,0.23324 -0.0684,0.23323 -0.041,0.23147 -0.041,0.23147 0.0239,0.19104 0.0239,0.19103 0.0677,0.19677 0.0677,0.19677 0.17957,0.31379 0.17956,0.31378 0.15706,0.33453 0.15706,0.33454 0.14708,0.44372 0.14708,0.44372 0.15881,0.64534 0.1588,0.64534 0.0877,0.48205 0.0877,0.48204 0.0731,0.58916 0.0731,0.58916 0.0374,0.42849 0.0374,0.42848 0.0224,0.82564 0.0224,0.82564 -0.13937,0.0172 -0.13937,0.0172 -0.34743,0.007 -0.34744,0.007 -0.31314,0.0488 -0.31314,0.0488 -0.41063,0.0722 -0.41063,0.0722 -0.42848,0.0375 -0.42848,0.0375 -0.42848,-0.004 -0.42849,-0.004 -0.3035,-0.047 z m -0.36158,-8.34893 -0.27232,-0.1189 -0.13831,-0.0827 -0.13832,-0.0828 -0.19385,-0.14606 -0.19385,-0.14605 -0.15457,-0.20963 -0.15457,-0.20962 -0.0759,-0.25003 -0.0759,-0.25003 0.0206,-0.23663 0.0206,-0.23663 0.0413,-0.11605 0.0413,-0.11605 0.30894,-0.002 0.30894,-0.002 0.17039,-0.028 0.17039,-0.028 0.12284,0.20222 0.12284,0.20221 -0.0406,0.13225 -0.0406,0.13225 0.12228,0.1273 0.12228,0.1273 0.36136,0.17367 0.36135,0.17367 0.0939,0.11162 0.0939,0.11162 0.0222,0.0884 0.0222,0.0885 -0.0168,0.17509 -0.0168,0.1751 -0.0926,0.12145 -0.0926,0.12145 -0.12346,0.0586 -0.12346,0.0586 -0.15528,-3.4e-4 -0.15529,-3.4e-4 z m 3.85193,-2.73964 -0.0625,-0.0364 v -0.0875 -0.0875 h 0.14395 0.14395 l 0.0227,0.0591 0.0227,0.0591 -0.0813,0.0659 -0.0813,0.0659 -0.0228,-0.001 -0.0228,-10e-4 -0.0625,-0.0364 z m 0.39278,-1.71712 -0.24103,-0.14261 v -0.0481 -0.0481 l 0.26327,-0.14533 0.26327,-0.14533 h 0.0224 0.0224 v 0.33922 0.33922 l -0.0446,-0.003 -0.0446,-0.003 -0.24102,-0.14262 z m -0.89566,0.0894 -0.0238,-0.0238 v -0.29755 -0.29756 h 0.0147 0.0147 l 0.25308,0.14591 0.25309,0.14592 v 0.0479 0.0479 l -0.20999,0.12756 -0.20998,0.12756 h -0.034 -0.034 z m 1.45014,-0.0517 0.0201,-0.0851 0.0434,-0.27673 0.0434,-0.27673 0.3968,6.9e-4 0.39681,6.8e-4 0.0479,0.0304 0.0479,0.0304 -0.29785,0.21812 -0.29786,0.21813 -0.21039,0.11283 -0.21039,0.11283 0.0201,-0.0851 z m -2.11666,-0.15738 -0.30351,-0.0823 -0.25888,-0.0251 -0.25887,-0.0251 0.002,-0.0226 0.002,-0.0226 0.31684,-0.15176 0.31684,-0.15175 h 0.23091 0.23091 l 0.0394,0.22609 0.0394,0.22609 v 0.0596 0.0596 l -0.0268,-0.004 -0.0268,-0.004 -0.30351,-0.0823 z m -2.39237,-0.19675 -0.16067,-0.0337 -0.22605,-0.11119 -0.22605,-0.11119 -0.18985,-0.18985 -0.18986,-0.18986 -0.11307,-0.22968 -0.11307,-0.22968 -0.0402,-0.23459 -0.0402,-0.2346 0.0398,-0.25731 0.0398,-0.2573 0.11343,-0.23041 0.11342,-0.23041 0.18872,-0.18871 0.18871,-0.18872 0.21935,-0.1096 0.21935,-0.10962 0.20423,-0.0424 0.20422,-0.0424 0.23214,0.0195 0.23214,0.0194 0.20437,0.0765 0.20437,0.0765 0.20923,0.15403 0.20924,0.15403 0.14571,0.21821 0.14571,0.21821 0.0655,0.18792 0.0655,0.18791 -0.001,0.32136 -0.001,0.32136 -0.0642,0.18792 -0.0642,0.18792 -0.14571,0.2182 -0.14572,0.21821 -0.20923,0.15403 -0.20923,0.15404 -0.20094,0.0752 -0.20094,0.0752 -0.27128,0.0147 -0.27128,0.0147 z m 2.65364,-0.76501 -0.22077,-0.0496 -0.15415,-0.0701 -0.15415,-0.0701 -0.0627,-0.0487 -0.0627,-0.0487 0.0369,-0.12497 0.0369,-0.12498 6.8e-4,-0.28565 6.8e-4,-0.28565 -0.0734,-0.23746 -0.0734,-0.23744 -0.14469,-0.21668 -0.14469,-0.21667 -0.14561,-0.12096 -0.14561,-0.12095 0.0923,-0.20164 0.0923,-0.20164 0.18469,-0.19528 0.18469,-0.19528 0.16827,-0.10798 0.16827,-0.10798 0.19549,-0.0673 0.19549,-0.0673 0.21226,-0.0246 0.21225,-0.0246 0.26696,0.0557 0.26696,0.0557 0.18624,0.0911 0.18624,0.0911 0.18662,0.16779 0.18663,0.16779 0.11692,0.18279 0.11693,0.18278 0.0765,0.22712 0.0765,0.22713 -6.8e-4,0.29221 -6.8e-4,0.29222 -0.0415,0.15414 -0.0415,0.15414 -0.0998,0.19729 -0.0998,0.19729 -0.14654,0.1661 -0.14653,0.1661 -0.18944,0.12574 -0.18944,0.12575 -0.21231,0.0709 -0.21232,0.0709 -0.23209,0.0199 -0.2321,0.0199 -0.22077,-0.0496 z"
       id="path24128" />
    <path
       style="fill:#000000;stroke-width:0.03421"
       d="m 98.735917,345.48214 v -0.46183 h 7.697273 7.69725 v 0.46183 0.46184 h -7.69725 -7.697273 z m 3.078913,-0.87849 -1.38551,-0.0232 -0.14955,-0.0328 -0.14957,-0.0328 -0.0318,-0.0467 -0.0319,-0.0467 0.0159,-1.16314 0.0159,-1.16314 0.0346,-0.13311 0.0346,-0.13309 0.0475,-0.0475 0.0475,-0.0475 0.23727,0.0575 0.23726,0.0574 0.39342,0.003 0.39343,0.003 0.22312,-0.0772 0.22313,-0.0771 0.20878,-0.1452 0.20879,-0.14519 0.20097,-0.16248 0.20097,-0.16248 0.0807,-2e-5 0.0807,-2e-5 0.1811,0.16553 0.18112,0.16553 0.26889,0.13989 0.26889,0.1399 0.26214,0.088 0.26212,0.088 h 0.25122 0.25123 l 0.25496,-0.0706 0.25495,-0.0706 0.27463,-0.1427 0.27461,-0.14269 0.2585,-0.2467 0.2585,-0.2467 0.31774,0.28594 0.31774,0.28594 0.2448,0.12391 0.2448,0.12392 0.18815,0.0498 0.18816,0.0497 0.26153,4.2e-4 0.26152,4e-4 0.23452,-0.0719 0.23452,-0.0719 0.29831,-0.15343 0.2983,-0.15342 0.20579,-0.18361 0.20579,-0.18363 0.0946,0.0332 0.0946,0.0332 0.23948,0.20554 0.23947,0.20553 0.27367,0.13713 0.27369,0.13711 0.3091,0.039 0.30912,0.039 0.46062,-0.0593 0.46062,-0.0594 0.0647,-0.0189 0.0647,-0.0189 -0.0224,1.02157 -0.0224,1.02159 -0.0208,0.39796 -0.0208,0.39798 -1.64648,0.0224 -1.64648,0.0224 -3.13022,0.007 -3.13021,0.007 z m -1.17223,-3.38367 -0.12881,-0.0304 -0.12861,-0.0656 -0.12859,-0.0656 -0.15665,-0.16748 -0.156654,-0.16746 -0.0741,-0.19814 -0.07413,-0.19814 -0.01973,-0.24486 -0.01973,-0.24486 0.05437,-0.25658 0.05436,-0.25657 0.10798,-0.21981 0.107984,-0.21981 0.15029,-0.1503 0.15032,-0.1503 0.11693,-0.0489 0.11693,-0.0489 0.47174,-0.0353 0.47175,-0.0353 2.34337,-0.0303 2.3434,-0.0303 2.3776,0.03 2.3776,0.03 0.59867,0.0365 0.59868,0.0365 0.13233,0.0355 0.13232,0.0355 0.17043,0.15942 0.17042,0.15941 0.0823,0.1626 0.0824,0.1626 0.0475,0.18245 0.0475,0.18246 0.0232,0.2543 0.0232,0.2543 -0.0381,0.23447 -0.038,0.23447 -0.0811,0.15894 -0.0811,0.15895 -0.0973,0.0903 -0.0973,0.0903 -0.13768,0.0689 -0.13769,0.0689 -0.21008,0.0413 -0.21009,0.0413 -0.37065,-0.0138 -0.37064,-0.0138 -0.13539,-0.0657 -0.13539,-0.0657 -0.34119,-0.3374 -0.34118,-0.33739 -0.17069,-0.0865 -0.17068,-0.0865 -0.11696,0.019 -0.11697,0.0191 -0.0516,0.0428 -0.0516,0.0428 -0.10194,0.21565 -0.10183,0.21564 -0.1086,0.0815 -0.1086,0.0815 -0.17105,0.0839 -0.17106,0.0839 -0.17104,0.0482 -0.17105,0.0482 h -0.39342 -0.39342 l -0.14216,-0.0761 -0.14216,-0.0761 -0.21705,-0.22561 -0.21703,-0.22561 -0.23727,-0.20297 -0.23727,-0.20297 h -0.0674 -0.0674 l -0.12296,0.0927 -0.12297,0.0927 -0.3592,0.34441 -0.3592,0.34441 -0.13685,0.0675 -0.13684,0.0675 -0.47894,-2e-5 -0.47894,-4e-5 -0.14805,-0.0789 -0.14804,-0.0789 -0.40386,-0.38801 -0.40387,-0.38803 -0.0756,-0.0405 -0.0756,-0.0405 -0.0838,0.0211 -0.0838,0.021 -0.45951,0.44214 -0.45951,0.44213 -0.17805,0.0528 -0.17804,0.0528 -0.36156,-0.003 -0.36154,-0.003 z m 1.10381,-4.30734 v -1.09484 h 0.0224 0.0224 l 0.37956,0.1268 0.37956,0.1268 0.39342,3e-5 0.39342,3e-5 0.23947,-0.0943 0.23947,-0.0943 0.38644,-0.2635 0.38645,-0.26349 0.08,-0.0493 0.08,-0.0493 0.26909,0.24831 0.26909,0.24831 0.27368,0.13514 0.27368,0.13514 0.28438,0.0409 0.28438,0.0409 0.32049,-0.0545 0.3205,-0.0545 0.28458,-0.13894 0.28459,-0.13893 0.31569,-0.23857 0.31569,-0.23855 0.28298,0.25583 0.283,0.25584 0.26179,0.13105 0.26178,0.13103 0.25043,0.0423 0.25043,0.0423 0.24799,-0.021 0.24798,-0.021 0.37198,-0.12026 0.37199,-0.12025 h 0.04 0.0401 l -0.009,1.08618 -0.009,1.08616 -4.69534,0.009 -4.69532,0.009 v -1.09485 z m 0.88945,-1.4035 -0.15393,-0.0316 -0.22062,-0.11208 -0.22062,-0.11208 -0.14349,-0.17639 -0.14348,-0.1764 -0.0748,-0.19988 -0.0748,-0.19987 -0.019,-0.22617 -0.019,-0.22617 0.0435,-0.18439 0.0435,-0.18439 0.0855,-0.17105 0.0855,-0.17105 0.2751,-0.28223 0.27509,-0.28224 h 4.0792 4.07919 l 0.27681,0.29934 0.27681,0.29933 0.0765,0.15395 0.0765,0.15395 0.0123,0.43948 0.0122,0.43948 -0.0442,0.1592 -0.0442,0.15919 -0.19226,0.19293 -0.19225,0.19292 -0.22034,0.11468 -0.22034,0.11468 -0.3592,2.7e-4 -0.3592,2.8e-4 -0.2324,-0.11008 -0.2324,-0.11008 -0.37153,-0.35815 -0.37155,-0.35814 -0.12079,-0.0227 -0.1208,-0.0227 -0.1255,0.0414 -0.12551,0.0414 -0.41703,0.40216 -0.41702,0.40217 -0.10799,0.0558 -0.10799,0.0559 h -0.23816 -0.23817 l -0.25722,-0.0492 -0.25722,-0.0492 -0.11354,-0.058 -0.11355,-0.058 -0.35921,-0.35042 -0.3592,-0.35042 -0.0747,-0.0385 -0.0748,-0.0384 h -0.0912 -0.0912 l -0.12174,0.0577 -0.12176,0.0577 -0.35563,0.3344 -0.35565,0.3344 -0.21198,0.10439 -0.21199,0.10439 -0.22237,0.0149 -0.22235,0.0149 z m 3.23123,-3.63392 -0.5148,-0.52183 -0.16236,-0.24632 -0.16235,-0.24633 -0.0538,-0.15781 -0.0538,-0.15781 0.0146,-0.20199 0.0146,-0.20199 0.1301,-0.18888 0.13009,-0.18888 0.12439,-0.0773 0.12438,-0.0773 0.8937,-0.0111 0.8937,-0.0111 0.14971,0.0403 0.1497,0.0403 0.13266,0.13933 0.13267,0.13933 0.0633,0.13935 0.0633,0.13935 v 0.20526 0.20527 l -0.0652,0.14366 -0.0652,0.14368 -0.13489,0.19863 -0.13489,0.19863 -0.30373,0.33261 -0.30374,0.33262 -0.23254,0.20599 -0.23256,0.20599 -0.0411,1.4e-4 -0.0411,1.3e-4 -0.51479,-0.52184 z"
       id="path24240" />
  </g>
</svg>
